<?xml version="1.0" encoding="UTF-8"?>
<svg xmlns="http://www.w3.org/2000/svg" viewBox="0 0 339.57 186.38">
  <defs>
    <style>
      .cls-1 {
        fill: #b7b7b7;
      }

      .cls-2 {
        opacity: .5;
      }

      .cls-2, .cls-3 {
        fill: #646668;
      }

      .cls-2, .cls-4 {
        mix-blend-mode: multiply;
      }

      .cls-5 {
        fill: #fff;
      }

      .cls-6 {
        fill: #8b8b8b;
      }

      .cls-7 {
        fill: #c5c5c5;
      }

      .cls-8 {
        fill: #e3f5f9;
      }

      .cls-9 {
        fill: #dfd5db;
      }

      .cls-10 {
        fill: #e2e2e2;
      }

      .cls-11 {
        fill: #0069ae;
      }

      .cls-12 {
        fill: #282a2c;
      }

      .cls-13 {
        isolation: isolate;
      }

      .cls-14, .cls-15 {
        fill: #706f70;
      }

      .cls-14, .cls-16 {
        mix-blend-mode: screen;
      }

      .cls-17 {
        fill: #d4d4d4;
      }

      .cls-18 {
        fill: #7d7d7d;
      }

      .cls-19 {
        fill: #364886;
      }

      .cls-20 {
        fill: #242425;
      }

      .cls-21 {
        fill: #59575b;
      }

      .cls-22 {
        fill: #181a1b;
      }

      .cls-23 {
        fill: #e7d988;
      }

      .cls-24 {
        fill: #505254;
      }

      .cls-25 {
        fill: #4d4e50;
      }

      .cls-26 {
        fill: #a19ba1;
      }

      .cls-27 {
        fill: #9a9a9a;
      }

      .cls-28 {
        fill: #606060;
      }

      .cls-29 {
        fill: #f1f1f1;
      }

      .cls-30 {
        fill: #a8a8a8;
      }

      .cls-31 {
        fill: #070707;
      }

      .cls-32 {
        fill: #6e6e6e;
      }

      .cls-16 {
        fill: #5e5f62;
      }

      .cls-4, .cls-33 {
        fill: #1b71ac;
      }
    </style>
  </defs>
  <g class="cls-13">
    <g id="Layer_1" data-name="Layer 1">
      <g>
        <g>
          <path class="cls-5" d="M332.85,118.77c.08-4.42,.18-7.98,.3-10.48,.63-13.16-10-21.37-15.71-23.88-.33-.14-.67-.27-1.01-.38l-42.96-13.27-3.08-6.14-5.76-10.5-5.52-8.96c-.22-.33-.44-.67-.66-1l-.55-.82c-.22-.32-.44-.64-.65-.94-.2-.29-.39-.57-.58-.84l-2.55-3.51c-.25-.33-.49-.65-.72-.94l-.12-.15c-.16-.21-.32-.42-.48-.61-.2-.25-.4-.5-.6-.75l-.75-.93c-.22-.26-.44-.52-.65-.78l-.29-.34c-.14-.17-.29-.34-.43-.5-.29-.34-.59-.66-.92-1.04l-.48-.54c-.48-.52-.96-1.03-1.44-1.53-.51-.52-1.03-1.03-1.54-1.53-.14-.13-.27-.26-.41-.38l-.1-.09c-.35-.33-.7-.65-1.06-.97-.19-.17-.38-.33-.57-.49l-.36-.31c-.21-.18-.42-.36-.63-.54-.28-.23-.56-.46-.85-.69l-.71-.57c-.38-.3-.76-.58-1.14-.87l-.39-.29c-.42-.31-.85-.61-1.3-.93-.03-.02-.06-.04-.09-.06-1.6-1.11-3.22-2.12-4.78-2.98-.22-.12-.44-.24-.66-.34-11.21-6.07-20.65-6.5-21.05-6.52-.08,0-.19,0-.27,0-1.43-.02-14.22-.19-30.13-.34-.63-.09-1.27-.12-1.91-.08l-3.87,.03-4.34-.04c-.43,0-.86,.03-1.29,.08-14.83,.14-26.83,.3-30.21,.34h-.11c-.09,0-.18,0-.27,0-.43,.02-10.48,.5-22.14,7.14-.16,.08-.31,.16-.46,.25-.03,.02-.06,.04-.09,.05-.18,.11-.36,.22-.56,.35-.8,.48-1.62,1-2.47,1.56l-.16,.1c-.16,.11-.33,.22-.48,.32-.97,.66-1.95,1.38-2.87,2.09-.1,.08-.21,.16-.29,.22-1.05,.82-2.08,1.69-3.09,2.59-.03,.03-.07,.06-.1,.09-1,.9-1.98,1.84-2.91,2.79-.48,.49-.96,1-1.46,1.54l-.51,.57c-.3,.33-.6,.66-.88,.99-.15,.17-.29,.34-.44,.51l-.26,.3c-.22,.26-.45,.53-.71,.84l-.7,.87c-.2,.25-.41,.51-.63,.78l-.71,.91c-.2,.26-.41,.53-.61,.8l-3.11,4.32c-.22,.32-.44,.64-.67,.97l-1.73,2.62c-.22,.33-.43,.67-.63,.97l-4.38,7.2-6.48,11.92c-.23,.46-.46,.9-.68,1.33l-1.67,3.39-43.02,13.3c-.43,.13-.85,.3-1.26,.49-6.01,2.84-16.01,11.04-15.4,23.74,.2,4.15,.31,10.46,.38,15.87-.21,.22-.41,.45-.6,.68-1.87,2.32-2.6,5.32-2.01,8.21,.02,.1,2.14,10.54,3.68,15.87,2.37,8.15,9.83,12.07,15.8,12.26,.05,0,6.92,.14,11.9,.14h.44c5.61,14.64,19.8,25.06,36.39,25.06,17.91,0,33.19-12.35,37.64-28.98h82.82c4.37,16.8,19.53,28.98,37.67,28.98,16.53,0,30.59-10.12,36.26-24.64,.88,.25,1.79,.38,2.72,.38h38.45c.95,.21,2.06,.36,3.29,.36,5.49,0,10.24-3.03,12.71-8.14,.37-.77,.64-1.6,.8-2.44,0-.05,.02-.1,.03-.15l3.4-19.39c.1-.55,.15-1.19,.15-1.75,0-4.49-2.31-9.17-6.72-11.85Z"/>
          <path class="cls-29" d="M331.47,117.69c.08-4.42,.18-7.98,.3-10.48,.63-13.16-10-21.37-15.71-23.88-.33-.14-.67-.27-1.01-.38l-42.96-13.27-3.08-6.14-5.76-10.5-5.52-8.96c-.22-.33-.44-.67-.66-1l-.55-.82c-.22-.32-.44-.64-.65-.94-.2-.29-.39-.57-.58-.84l-2.55-3.51c-.25-.33-.49-.65-.72-.94l-.12-.15c-.16-.21-.33-.42-.48-.61-.2-.25-.4-.5-.6-.75l-.75-.93c-.22-.26-.44-.52-.65-.78l-.29-.34c-.14-.17-.29-.34-.43-.5-.29-.34-.59-.66-.92-1.04l-.48-.54c-.48-.52-.96-1.03-1.44-1.53-.51-.52-1.03-1.03-1.54-1.53-.14-.13-.27-.26-.41-.38l-.1-.09c-.35-.33-.7-.65-1.06-.97-.19-.17-.38-.33-.56-.49l-.36-.31c-.21-.18-.42-.36-.63-.54-.28-.23-.56-.46-.85-.69l-.71-.57c-.38-.3-.76-.58-1.14-.87l-.39-.29c-.42-.31-.85-.61-1.3-.93-.03-.02-.06-.04-.09-.06-1.59-1.12-3.23-2.11-4.78-2.98-.22-.12-.44-.24-.66-.34-11.21-6.07-20.65-6.5-21.05-6.52-.08,0-.19,0-.27,0-1.43-.03-14.22-.19-30.13-.34-.63-.09-1.27-.12-1.91-.08l-3.87,.03-4.34-.04c-.43,0-.86,.03-1.29,.08-14.83,.14-26.83,.3-30.21,.34h-.11c-.09,0-.18,0-.27,0-.43,.02-10.48,.5-22.14,7.14-.16,.08-.31,.16-.46,.25-.03,.02-.06,.04-.09,.05-.18,.11-.36,.22-.56,.35-.8,.48-1.62,1-2.47,1.56l-.16,.1c-.16,.11-.33,.22-.48,.32-.97,.66-1.94,1.39-2.87,2.09-.1,.08-.21,.16-.29,.22-1.05,.82-2.08,1.69-3.09,2.59-.03,.03-.07,.06-.1,.09-1,.91-1.98,1.84-2.91,2.79-.48,.49-.96,1-1.46,1.54l-.51,.57c-.3,.33-.6,.66-.88,.99-.15,.17-.29,.34-.44,.51l-.26,.3c-.22,.26-.45,.53-.71,.84l-.7,.87c-.2,.25-.41,.51-.63,.78l-.71,.91c-.2,.26-.41,.53-.61,.8l-3.11,4.32c-.22,.32-.44,.64-.67,.97l-1.73,2.62c-.22,.33-.43,.67-.63,.97l-4.38,7.2-6.48,11.92c-.23,.46-.46,.9-.68,1.33l-1.67,3.39-43.02,13.3c-.43,.13-.85,.3-1.26,.49-6.01,2.84-16.01,11.04-15.4,23.74,.2,4.15,.31,10.46,.38,15.87-.21,.22-.41,.45-.6,.68-1.87,2.32-2.6,5.32-2.01,8.21,.02,.1,2.14,10.54,3.68,15.87,2.37,8.15,9.83,12.06,15.8,12.26,.05,0,6.92,.14,11.9,.14h.44c5.61,14.64,19.8,25.06,36.39,25.06,17.91,0,33.19-12.35,37.64-28.98h82.82c4.37,16.8,19.53,28.98,37.67,28.98,16.53,0,30.59-10.12,36.26-24.64,.88,.25,1.79,.38,2.72,.38h38.45c.95,.21,2.06,.36,3.29,.36,5.49,0,10.25-3.02,12.71-8.14,.37-.77,.64-1.59,.8-2.44,0-.05,.02-.1,.03-.15l3.4-19.39c.1-.55,.15-1.19,.15-1.75,0-4.49-2.31-9.17-6.72-11.85Z"/>
          <path class="cls-10" d="M330.09,116.61c.08-4.42,.18-7.98,.3-10.48,.63-13.16-10-21.37-15.71-23.88-.33-.14-.67-.27-1.01-.38l-42.96-13.27-3.08-6.14-5.76-10.5-5.52-8.96c-.22-.33-.44-.67-.66-1l-.55-.82c-.22-.32-.44-.64-.65-.94-.2-.29-.39-.57-.58-.84l-2.55-3.51c-.25-.33-.49-.65-.72-.94l-.12-.15c-.16-.21-.33-.42-.48-.61-.2-.25-.4-.5-.6-.75l-.75-.93c-.22-.26-.44-.52-.65-.78l-.29-.34c-.14-.17-.29-.34-.43-.5-.29-.34-.59-.66-.92-1.04l-.48-.54c-.48-.52-.96-1.03-1.44-1.53-.51-.52-1.03-1.03-1.54-1.53-.14-.13-.27-.26-.41-.38l-.1-.09c-.35-.33-.7-.65-1.06-.97-.19-.17-.38-.33-.57-.49l-.36-.31c-.21-.18-.42-.36-.63-.54-.28-.23-.57-.46-.85-.69l-.71-.57c-.38-.3-.76-.58-1.14-.87l-.39-.29c-.42-.31-.85-.61-1.3-.93-.03-.02-.06-.04-.09-.06-1.59-1.12-3.23-2.11-4.78-2.98-.22-.12-.44-.24-.66-.34-11.21-6.07-20.65-6.5-21.05-6.52-.08,0-.19,0-.27,0-1.43-.03-14.22-.19-30.13-.34-.63-.09-1.27-.12-1.91-.08l-3.87,.03-4.34-.04c-.43,0-.86,.03-1.29,.08-14.83,.14-26.83,.3-30.21,.34h-.11c-.09,0-.18,0-.27,0-.43,.02-10.48,.5-22.14,7.14-.16,.08-.31,.16-.46,.25-.03,.02-.06,.04-.09,.05-.18,.11-.36,.22-.56,.35-.8,.48-1.62,1-2.47,1.56l-.16,.1c-.16,.11-.33,.22-.48,.32-.97,.66-1.94,1.39-2.87,2.09-.1,.08-.21,.16-.29,.22-1.05,.82-2.08,1.69-3.09,2.59-.03,.03-.07,.06-.1,.09-1,.91-1.98,1.84-2.91,2.79-.48,.49-.96,1-1.46,1.54l-.51,.57c-.3,.33-.6,.66-.88,.99-.15,.17-.29,.34-.44,.51l-.26,.3c-.22,.26-.45,.53-.71,.84l-.7,.87c-.2,.25-.41,.51-.63,.78l-.71,.91c-.2,.26-.41,.53-.61,.8l-3.11,4.32c-.22,.32-.44,.64-.67,.97l-1.73,2.62c-.22,.33-.43,.67-.63,.97l-4.38,7.2-6.48,11.92c-.23,.46-.46,.9-.68,1.33l-1.67,3.39-43.02,13.3c-.43,.13-.85,.3-1.26,.49-6.01,2.84-16.01,11.04-15.4,23.74,.2,4.15,.31,10.46,.38,15.87-.21,.22-.41,.45-.6,.68-1.87,2.32-2.6,5.32-2.01,8.21,.02,.1,2.14,10.54,3.68,15.87,2.37,8.15,9.83,12.05,15.8,12.26,.05,0,6.92,.14,11.9,.14h.44c5.61,14.64,19.8,25.06,36.39,25.06,17.91,0,33.19-12.35,37.64-28.98h82.82c4.37,16.8,19.53,28.98,37.67,28.98,16.53,0,30.59-10.12,36.26-24.63,.88,.25,1.79,.38,2.72,.38h38.45c.95,.21,2.06,.36,3.29,.36,5.49,0,10.25-3.02,12.71-8.14,.37-.77,.64-1.59,.8-2.44,0-.05,.02-.1,.03-.15l3.4-19.39c.1-.55,.15-1.19,.15-1.75,0-4.49-2.31-9.17-6.72-11.85Z"/>
          <path class="cls-17" d="M328.71,115.52c.08-4.42,.18-7.98,.3-10.48,.63-13.16-10-21.37-15.71-23.88-.33-.14-.67-.27-1.01-.38l-42.96-13.27-3.08-6.14-5.76-10.5-5.52-8.96c-.22-.33-.44-.67-.66-1l-.55-.82c-.22-.32-.44-.64-.65-.94-.2-.29-.39-.57-.58-.84l-2.55-3.51c-.25-.33-.49-.65-.72-.94l-.12-.15c-.16-.21-.33-.42-.48-.61-.2-.25-.4-.5-.6-.75l-.75-.93c-.22-.26-.44-.52-.66-.78l-.29-.34c-.14-.17-.29-.34-.43-.5-.29-.34-.59-.66-.92-1.04l-.48-.54c-.48-.52-.96-1.03-1.44-1.53-.51-.52-1.03-1.03-1.54-1.53-.14-.13-.27-.26-.41-.38l-.1-.09c-.35-.33-.7-.65-1.06-.97-.19-.17-.38-.33-.57-.49l-.36-.31c-.21-.18-.42-.36-.63-.54-.28-.23-.57-.46-.85-.69l-.71-.57c-.38-.3-.76-.58-1.14-.87l-.39-.29c-.42-.31-.85-.61-1.3-.93-.03-.02-.06-.04-.09-.06-1.59-1.12-3.23-2.11-4.78-2.98-.22-.12-.44-.24-.66-.34-11.21-6.07-20.65-6.5-21.06-6.52-.08,0-.19,0-.27,0-1.43-.03-14.22-.19-30.13-.34-.63-.09-1.27-.12-1.91-.08l-3.87,.03-4.34-.04c-.43,0-.86,.03-1.29,.08-14.83,.14-26.83,.3-30.21,.34h-.11c-.09,0-.18,0-.27,0-.43,.02-10.48,.5-22.14,7.14-.16,.08-.31,.16-.46,.25-.03,.02-.06,.04-.09,.05-.18,.11-.36,.22-.56,.35-.8,.48-1.62,1-2.47,1.56l-.16,.1c-.16,.11-.33,.22-.48,.32-.97,.66-1.94,1.39-2.87,2.09-.1,.08-.21,.16-.29,.22-1.05,.82-2.08,1.69-3.09,2.59-.03,.03-.07,.06-.1,.09-1,.91-1.98,1.84-2.91,2.79-.48,.49-.96,1-1.46,1.54l-.51,.57c-.3,.33-.6,.66-.88,.99-.15,.17-.29,.34-.44,.51l-.26,.3c-.22,.26-.45,.53-.71,.84l-.7,.87c-.2,.25-.41,.51-.63,.78l-.71,.91c-.2,.26-.41,.53-.61,.8l-3.11,4.32c-.22,.32-.44,.64-.67,.97l-1.73,2.62c-.22,.33-.43,.67-.63,.97l-4.38,7.2-6.48,11.92c-.23,.46-.46,.9-.68,1.33l-1.67,3.39-43.02,13.3c-.43,.13-.85,.3-1.26,.49-6.01,2.84-16.01,11.04-15.4,23.74,.2,4.15,.31,10.46,.38,15.87-.21,.22-.41,.45-.6,.68-1.87,2.32-2.6,5.32-2.01,8.21,.02,.1,2.14,10.54,3.68,15.87,2.37,8.15,9.83,12.06,15.8,12.26,.05,0,6.92,.14,11.9,.14h.44c5.61,14.64,19.8,25.06,36.39,25.06,17.91,0,33.19-12.35,37.64-28.98h82.82c4.37,16.8,19.53,28.98,37.67,28.98,16.53,0,30.59-10.12,36.26-24.64,.88,.25,1.79,.38,2.72,.38h38.45c.95,.21,2.06,.36,3.29,.36,5.49,0,10.25-3.02,12.71-8.14,.37-.77,.64-1.59,.8-2.44,0-.05,.02-.1,.03-.15l3.4-19.39c.1-.55,.15-1.19,.15-1.75,0-4.49-2.31-9.17-6.72-11.85Z"/>
          <path class="cls-7" d="M327.33,114.44c.08-4.42,.18-7.98,.3-10.48,.63-13.16-10-21.37-15.71-23.88-.33-.14-.67-.27-1.01-.38l-42.96-13.27-3.08-6.14-5.76-10.5-5.52-8.96c-.22-.33-.44-.67-.66-1l-.55-.82c-.22-.32-.44-.64-.65-.94-.2-.29-.39-.57-.58-.84l-2.55-3.51c-.25-.33-.49-.65-.72-.94l-.12-.15c-.16-.21-.33-.42-.48-.61-.2-.25-.4-.5-.6-.75l-.75-.93c-.22-.26-.44-.52-.65-.78l-.29-.34c-.14-.17-.29-.34-.43-.5-.29-.34-.59-.66-.92-1.04l-.48-.54c-.48-.52-.96-1.03-1.44-1.53-.51-.52-1.03-1.03-1.54-1.53-.14-.13-.27-.26-.41-.38l-.1-.09c-.35-.33-.7-.65-1.06-.97-.19-.17-.38-.33-.56-.49l-.36-.31c-.21-.18-.42-.36-.63-.54-.28-.23-.57-.46-.85-.69l-.71-.57c-.38-.3-.76-.58-1.14-.87l-.39-.29c-.42-.31-.85-.61-1.3-.93-.03-.02-.06-.04-.09-.06-1.59-1.12-3.23-2.11-4.78-2.98-.22-.12-.44-.24-.66-.34-11.21-6.07-20.65-6.5-21.06-6.52-.08,0-.19,0-.27,0-1.43-.03-14.22-.19-30.13-.34-.63-.09-1.27-.12-1.91-.08l-3.87,.03-4.34-.04c-.43,0-.86,.03-1.29,.08-14.83,.14-26.83,.3-30.21,.34h-.11c-.09,0-.18,0-.27,0-.43,.02-10.48,.5-22.14,7.14-.16,.08-.31,.16-.46,.25-.03,.02-.06,.04-.09,.05-.18,.11-.36,.22-.56,.35-.8,.48-1.62,1-2.47,1.56l-.16,.1c-.16,.11-.33,.22-.48,.32-.97,.66-1.94,1.39-2.87,2.09-.1,.08-.21,.16-.29,.22-1.05,.82-2.08,1.69-3.09,2.59-.03,.03-.07,.06-.1,.09-1,.91-1.98,1.84-2.91,2.79-.48,.49-.96,1-1.46,1.54l-.51,.57c-.3,.33-.6,.66-.88,.99-.15,.17-.29,.34-.44,.51l-.26,.3c-.22,.26-.45,.53-.71,.84l-.7,.87c-.2,.25-.41,.51-.63,.78l-.71,.91c-.2,.26-.41,.53-.61,.8l-3.11,4.32c-.22,.32-.44,.64-.67,.97l-1.73,2.62c-.22,.33-.43,.67-.63,.97l-4.38,7.2-6.48,11.92c-.23,.46-.46,.9-.68,1.33l-1.67,3.39-43.02,13.3c-.43,.13-.85,.3-1.26,.49-6.01,2.84-16.01,11.04-15.4,23.74,.2,4.15,.31,10.46,.38,15.87-.21,.22-.41,.45-.6,.68-1.87,2.32-2.6,5.32-2.01,8.21,.02,.1,2.14,10.54,3.68,15.87,2.37,8.15,9.83,12.06,15.8,12.26,.05,0,6.92,.14,11.9,.14h.44c5.61,14.64,19.8,25.06,36.39,25.06,17.91,0,33.19-12.35,37.64-28.98h82.82c4.37,16.8,19.53,28.98,37.67,28.98,16.53,0,30.59-10.12,36.26-24.64,.88,.25,1.79,.38,2.72,.38h38.45c.95,.21,2.06,.36,3.29,.36,5.49,0,10.25-3.02,12.71-8.14,.37-.77,.64-1.59,.8-2.44,0-.05,.02-.1,.03-.15l3.4-19.39c.1-.55,.15-1.19,.15-1.75,0-4.49-2.31-9.17-6.72-11.85Z"/>
          <path class="cls-1" d="M325.94,113.36c.08-4.42,.18-7.98,.3-10.48,.63-13.16-10-21.37-15.71-23.88-.33-.14-.67-.27-1.01-.38l-42.96-13.27-3.08-6.14-5.76-10.5-5.52-8.96c-.22-.33-.44-.67-.66-1l-.55-.82c-.22-.32-.44-.64-.65-.94-.2-.29-.39-.57-.58-.84l-2.55-3.51c-.25-.33-.49-.65-.72-.94l-.12-.15c-.16-.21-.33-.42-.48-.61-.2-.25-.4-.5-.6-.75l-.75-.93c-.22-.26-.44-.52-.66-.78l-.29-.34c-.14-.17-.29-.34-.43-.5-.29-.34-.59-.66-.92-1.04l-.48-.54c-.48-.52-.96-1.03-1.44-1.53-.51-.52-1.03-1.03-1.54-1.53-.14-.13-.27-.26-.41-.38l-.1-.09c-.35-.33-.7-.65-1.06-.97-.19-.17-.38-.33-.57-.49l-.36-.31c-.21-.18-.42-.36-.63-.54-.28-.23-.56-.46-.85-.69l-.71-.57c-.38-.3-.76-.58-1.14-.87l-.39-.29c-.42-.31-.85-.61-1.3-.93-.03-.02-.06-.04-.09-.06-1.59-1.12-3.23-2.11-4.78-2.98-.22-.12-.44-.24-.66-.34-11.21-6.07-20.65-6.5-21.06-6.52-.08,0-.19,0-.27,0-1.43-.03-14.22-.19-30.13-.34-.63-.09-1.27-.12-1.91-.08l-3.87,.03-4.34-.04c-.43,0-.86,.03-1.29,.08-14.83,.14-26.83,.3-30.21,.34h-.11c-.09,0-.18,0-.27,0-.43,.02-10.48,.5-22.14,7.14-.16,.08-.31,.16-.46,.25-.03,.02-.06,.04-.09,.05-.18,.11-.36,.22-.56,.35-.8,.48-1.62,1-2.47,1.56l-.16,.1c-.16,.11-.33,.22-.48,.32-.97,.66-1.94,1.39-2.87,2.09-.1,.08-.21,.16-.29,.22-1.05,.82-2.08,1.69-3.09,2.59-.03,.03-.07,.06-.1,.09-1,.91-1.98,1.84-2.91,2.79-.48,.49-.96,1-1.46,1.54l-.51,.57c-.3,.33-.6,.66-.88,.99-.15,.17-.29,.34-.44,.51l-.26,.3c-.22,.26-.45,.53-.71,.84l-.7,.87c-.2,.25-.41,.51-.63,.78l-.71,.91c-.2,.26-.41,.53-.61,.8l-3.11,4.32c-.22,.32-.44,.64-.67,.97l-1.73,2.62c-.22,.33-.43,.67-.63,.97l-4.38,7.2-6.48,11.92c-.23,.46-.46,.9-.68,1.33l-1.67,3.39-43.02,13.3c-.43,.13-.85,.3-1.26,.49-6.01,2.84-16.01,11.04-15.4,23.74,.2,4.15,.31,10.46,.38,15.87-.21,.22-.41,.45-.6,.68-1.87,2.32-2.6,5.32-2.01,8.21,.02,.1,2.14,10.54,3.68,15.87,2.37,8.15,9.83,12.06,15.8,12.26,.05,0,6.92,.14,11.9,.14h.44c5.61,14.64,19.8,25.06,36.39,25.06,17.91,0,33.19-12.35,37.64-28.98h82.82c4.37,16.8,19.53,28.98,37.67,28.98,16.53,0,30.59-10.12,36.26-24.64,.88,.25,1.79,.38,2.72,.38h38.45c.95,.21,2.06,.36,3.29,.36,5.49,0,10.25-3.02,12.71-8.14,.37-.77,.64-1.59,.8-2.44,0-.05,.02-.1,.03-.15l3.4-19.39c.1-.55,.15-1.19,.15-1.75,0-4.49-2.31-9.17-6.72-11.85Z"/>
          <path class="cls-30" d="M324.56,112.28c.08-4.42,.18-7.98,.3-10.48,.63-13.16-10-21.37-15.71-23.88-.33-.14-.67-.27-1.01-.38l-42.96-13.27-3.08-6.14-5.76-10.5-5.52-8.96c-.22-.33-.44-.67-.66-1l-.55-.82c-.22-.32-.44-.64-.65-.94-.2-.29-.39-.57-.58-.84l-2.55-3.51c-.25-.33-.49-.65-.72-.94l-.12-.15c-.16-.21-.33-.42-.48-.61-.2-.25-.4-.5-.6-.75l-.75-.93c-.22-.26-.44-.52-.66-.78l-.29-.34c-.14-.17-.29-.34-.43-.5-.29-.34-.59-.66-.92-1.04l-.48-.54c-.48-.52-.96-1.03-1.44-1.53-.51-.52-1.03-1.03-1.54-1.53-.14-.13-.27-.26-.41-.38l-.1-.09c-.35-.33-.7-.65-1.06-.97-.19-.17-.38-.33-.57-.49l-.36-.31c-.21-.18-.42-.36-.63-.54-.28-.23-.57-.46-.85-.69l-.71-.57c-.38-.3-.76-.58-1.14-.87l-.39-.29c-.42-.31-.85-.61-1.3-.93-.03-.02-.06-.04-.09-.06-1.59-1.12-3.23-2.11-4.78-2.98-.22-.12-.44-.24-.66-.34-11.21-6.07-20.65-6.5-21.06-6.52-.08,0-.19,0-.27,0-1.43-.03-14.22-.19-30.13-.34-.63-.09-1.27-.12-1.91-.08l-3.87,.03-4.34-.04c-.43,0-.86,.03-1.29,.08-14.83,.14-26.83,.3-30.21,.34h-.11c-.09,0-.18,0-.27,0-.43,.02-10.48,.5-22.14,7.14-.16,.08-.31,.16-.46,.25-.03,.02-.06,.04-.09,.05-.18,.11-.36,.22-.56,.35-.8,.48-1.62,1-2.47,1.56l-.16,.1c-.16,.11-.33,.22-.48,.32-.97,.66-1.94,1.39-2.87,2.09-.1,.08-.21,.16-.29,.22-1.05,.82-2.08,1.69-3.09,2.59-.03,.03-.07,.06-.1,.09-1,.91-1.98,1.84-2.91,2.79-.48,.49-.96,1-1.46,1.54l-.51,.57c-.3,.33-.6,.66-.88,.99-.15,.17-.29,.34-.44,.51l-.26,.3c-.22,.26-.45,.53-.71,.84l-.7,.87c-.2,.25-.41,.51-.63,.78l-.71,.91c-.2,.26-.41,.53-.61,.8l-3.11,4.32c-.22,.32-.44,.64-.67,.97l-1.73,2.62c-.22,.33-.43,.67-.63,.97l-4.38,7.2-6.48,11.92c-.23,.46-.46,.9-.68,1.33l-1.67,3.39-43.02,13.3c-.43,.13-.85,.3-1.26,.49-6.01,2.84-16.01,11.04-15.4,23.74,.2,4.15,.31,10.46,.38,15.87-.21,.22-.41,.45-.6,.68-1.87,2.32-2.6,5.32-2.01,8.21,.02,.1,2.14,10.54,3.68,15.87,2.37,8.15,9.83,12.06,15.8,12.26,.05,0,6.92,.14,11.9,.14h.44c5.61,14.64,19.8,25.06,36.39,25.06,17.91,0,33.19-12.35,37.64-28.98h82.82c4.37,16.8,19.53,28.98,37.67,28.98,16.53,0,30.59-10.12,36.26-24.64,.88,.25,1.79,.38,2.72,.38h38.45c.95,.21,2.06,.36,3.29,.36,5.49,0,10.25-3.02,12.71-8.14,.37-.77,.64-1.59,.8-2.44,0-.05,.02-.1,.03-.15l3.4-19.39c.1-.55,.15-1.19,.15-1.75,0-4.49-2.31-9.17-6.72-11.85Z"/>
          <path class="cls-27" d="M323.18,111.2c.08-4.42,.18-7.98,.3-10.48,.63-13.16-10-21.37-15.71-23.88-.33-.14-.67-.27-1.01-.38l-42.96-13.27-3.08-6.14-5.76-10.5-5.52-8.96c-.22-.33-.44-.67-.66-1l-.55-.82c-.22-.32-.44-.64-.65-.94-.2-.29-.39-.57-.58-.84l-2.55-3.51c-.25-.33-.49-.65-.72-.94l-.12-.15c-.16-.21-.33-.42-.48-.61-.2-.25-.4-.5-.6-.75l-.75-.93c-.22-.26-.44-.52-.65-.78l-.29-.34c-.14-.17-.29-.34-.43-.5-.29-.34-.59-.66-.92-1.04l-.48-.54c-.48-.52-.96-1.03-1.44-1.53-.51-.52-1.03-1.03-1.54-1.53-.14-.13-.27-.26-.41-.38l-.1-.09c-.35-.33-.7-.65-1.06-.97-.19-.17-.38-.33-.57-.49l-.36-.31c-.21-.18-.42-.36-.63-.54-.28-.23-.57-.46-.85-.69l-.71-.57c-.38-.3-.76-.58-1.14-.87l-.39-.29c-.42-.31-.85-.61-1.3-.93-.03-.02-.06-.04-.09-.06-1.59-1.12-3.23-2.11-4.78-2.98-.22-.12-.44-.24-.66-.34-11.21-6.07-20.65-6.5-21.05-6.52-.08,0-.19,0-.27,0-1.43-.03-14.22-.19-30.13-.34-.63-.09-1.27-.12-1.91-.08l-3.87,.03-4.34-.04c-.43,0-.86,.03-1.29,.08-14.83,.14-26.83,.3-30.21,.34h-.11c-.09,0-.18,0-.27,0-.43,.02-10.48,.5-22.14,7.14-.16,.08-.31,.16-.46,.25-.03,.02-.06,.04-.09,.05-.18,.11-.36,.22-.56,.35-.8,.48-1.62,1-2.47,1.56l-.16,.1c-.16,.11-.33,.22-.48,.32-.97,.66-1.94,1.39-2.87,2.09-.1,.08-.21,.16-.29,.22-1.05,.82-2.08,1.69-3.09,2.59-.03,.03-.07,.06-.1,.09-1,.91-1.98,1.84-2.91,2.79-.48,.49-.96,1-1.46,1.54l-.51,.57c-.3,.33-.6,.66-.88,.99-.15,.17-.29,.34-.44,.51l-.26,.3c-.22,.26-.45,.53-.71,.84l-.7,.87c-.2,.25-.41,.51-.63,.78l-.71,.91c-.2,.26-.41,.53-.61,.8l-3.11,4.32c-.22,.32-.44,.64-.67,.97l-1.73,2.62c-.22,.33-.43,.67-.63,.97l-4.38,7.2-6.48,11.92c-.23,.46-.46,.9-.68,1.33l-1.67,3.39-43.02,13.3c-.43,.13-.85,.3-1.26,.49-6.01,2.84-16.01,11.04-15.4,23.74,.2,4.15,.31,10.46,.38,15.87-.21,.22-.41,.45-.6,.68-1.87,2.32-2.6,5.32-2.01,8.21,.02,.1,2.14,10.54,3.68,15.87,2.37,8.15,9.83,12.05,15.8,12.26,.05,0,6.92,.14,11.9,.14h.44c5.61,14.64,19.8,25.06,36.39,25.06,17.91,0,33.19-12.35,37.64-28.98h82.82c4.37,16.8,19.53,28.98,37.67,28.98,16.53,0,30.59-10.12,36.26-24.63,.88,.25,1.79,.38,2.72,.38h38.45c.95,.21,2.06,.36,3.29,.36,5.49,0,10.25-3.02,12.71-8.14,.37-.77,.64-1.59,.8-2.44,0-.05,.02-.1,.03-.15l3.4-19.39c.1-.55,.15-1.19,.15-1.75,0-4.49-2.31-9.17-6.72-11.85Z"/>
          <path class="cls-6" d="M321.8,110.12c.08-4.42,.18-7.98,.3-10.48,.63-13.16-10-21.37-15.71-23.88-.33-.14-.67-.27-1.01-.38l-42.96-13.27-3.08-6.14-5.76-10.5-5.52-8.96c-.22-.33-.44-.67-.66-1l-.55-.82c-.22-.32-.44-.64-.65-.94-.2-.29-.39-.57-.58-.84l-2.55-3.51c-.25-.33-.49-.65-.72-.94l-.12-.15c-.16-.21-.33-.42-.48-.61-.2-.25-.4-.5-.6-.75l-.75-.93c-.22-.26-.44-.52-.66-.78l-.29-.34c-.14-.17-.29-.34-.43-.5-.29-.34-.59-.66-.92-1.04l-.48-.54c-.48-.52-.96-1.03-1.44-1.53-.51-.52-1.03-1.03-1.54-1.53-.14-.13-.27-.26-.41-.38l-.1-.09c-.35-.33-.7-.65-1.06-.97-.19-.17-.38-.33-.57-.49l-.36-.31c-.21-.18-.42-.36-.63-.54-.28-.23-.56-.46-.85-.69l-.71-.57c-.38-.3-.76-.58-1.14-.87l-.39-.29c-.42-.31-.85-.61-1.3-.93-.03-.02-.06-.04-.09-.06-1.59-1.12-3.23-2.11-4.78-2.98-.22-.12-.44-.24-.66-.34-11.21-6.07-20.65-6.5-21.05-6.52-.08,0-.19,0-.27,0-1.43-.03-14.22-.19-30.13-.34-.63-.09-1.27-.12-1.91-.08l-3.87,.03-4.34-.04c-.43,0-.86,.03-1.29,.08-14.83,.14-26.83,.3-30.21,.34h-.11c-.09,0-.18,0-.27,0-.43,.02-10.48,.5-22.14,7.14-.16,.08-.31,.16-.46,.25-.03,.02-.06,.04-.09,.05-.18,.11-.36,.22-.56,.35-.8,.48-1.62,1-2.47,1.56l-.16,.1c-.16,.11-.33,.22-.48,.32-.97,.66-1.94,1.39-2.87,2.09-.1,.08-.21,.16-.29,.22-1.05,.82-2.08,1.69-3.09,2.59-.03,.03-.07,.06-.1,.09-1,.91-1.98,1.84-2.91,2.79-.48,.49-.96,1-1.46,1.54l-.51,.57c-.3,.33-.6,.66-.88,.99-.15,.17-.29,.34-.44,.51l-.26,.3c-.22,.26-.45,.53-.71,.84l-.7,.87c-.2,.25-.41,.51-.63,.78l-.71,.91c-.2,.26-.41,.53-.61,.8l-3.11,4.32c-.22,.32-.44,.64-.67,.97l-1.73,2.62c-.22,.33-.43,.67-.63,.97l-4.38,7.2-6.48,11.92c-.23,.46-.46,.9-.68,1.33l-1.67,3.39-43.02,13.3c-.43,.13-.85,.3-1.26,.49-6.01,2.84-16.01,11.04-15.4,23.74,.2,4.15,.31,10.46,.38,15.87-.21,.22-.41,.45-.6,.68-1.87,2.32-2.6,5.32-2.01,8.21,.02,.1,2.14,10.54,3.68,15.87,2.37,8.15,9.83,12.05,15.8,12.26,.05,0,6.92,.14,11.9,.14h.44c5.61,14.64,19.8,25.06,36.39,25.06,17.91,0,33.19-12.35,37.64-28.98h82.82c4.37,16.8,19.53,28.98,37.67,28.98,16.53,0,30.59-10.12,36.26-24.64,.88,.25,1.79,.38,2.72,.38h38.45c.95,.21,2.06,.36,3.29,.36,5.49,0,10.25-3.02,12.71-8.14,.37-.77,.64-1.59,.8-2.44,0-.05,.02-.1,.03-.15l3.4-19.39c.1-.55,.15-1.19,.15-1.75,0-4.49-2.31-9.17-6.72-11.85Z"/>
          <path class="cls-18" d="M320.42,109.03c.08-4.42,.18-7.98,.3-10.48,.63-13.16-10-21.37-15.71-23.88-.33-.14-.67-.27-1.01-.38l-42.96-13.27-3.08-6.14-5.76-10.5-5.52-8.96c-.22-.33-.44-.67-.66-1l-.55-.82c-.22-.32-.44-.64-.65-.94-.2-.29-.39-.57-.58-.84l-2.55-3.51c-.25-.33-.49-.65-.72-.94l-.12-.15c-.16-.21-.33-.42-.48-.61-.2-.25-.4-.5-.6-.75l-.75-.93c-.22-.26-.44-.52-.66-.78l-.29-.34c-.14-.17-.29-.34-.43-.5-.29-.34-.59-.66-.92-1.04l-.48-.54c-.48-.52-.96-1.03-1.44-1.53-.51-.52-1.03-1.03-1.54-1.53-.14-.13-.27-.26-.41-.38l-.1-.09c-.35-.33-.7-.65-1.06-.97-.19-.17-.38-.33-.56-.49l-.36-.31c-.21-.18-.42-.36-.63-.54-.28-.23-.57-.46-.85-.69l-.71-.57c-.38-.3-.76-.58-1.14-.87l-.39-.29c-.42-.31-.85-.61-1.3-.93-.03-.02-.06-.04-.09-.06-1.59-1.12-3.23-2.11-4.78-2.98-.22-.12-.44-.24-.66-.34-11.21-6.07-20.65-6.5-21.05-6.52-.08,0-.19,0-.27,0-1.43-.03-14.22-.19-30.13-.34-.63-.09-1.27-.12-1.91-.08l-3.87,.03-4.34-.04c-.43,0-.86,.03-1.29,.08-14.83,.14-26.83,.3-30.21,.34h-.11c-.09,0-.18,0-.27,0-.43,.02-10.48,.5-22.14,7.14-.16,.08-.31,.16-.46,.25-.03,.02-.06,.04-.09,.05-.18,.11-.36,.22-.56,.35-.79,.48-1.62,1-2.47,1.56l-.16,.1c-.16,.11-.33,.22-.48,.32-.97,.66-1.94,1.39-2.87,2.09-.1,.08-.21,.16-.29,.22-1.05,.82-2.08,1.69-3.09,2.59-.03,.03-.07,.06-.1,.09-1,.91-1.98,1.84-2.91,2.79-.48,.49-.96,1-1.46,1.54l-.51,.57c-.3,.33-.6,.66-.88,.99-.15,.17-.29,.34-.44,.51l-.26,.3c-.22,.26-.45,.53-.71,.84l-.7,.87c-.2,.25-.41,.51-.63,.78l-.71,.91c-.2,.26-.41,.53-.61,.8l-3.11,4.32c-.22,.32-.44,.64-.67,.97l-1.73,2.62c-.22,.33-.43,.67-.63,.97l-4.38,7.2-6.48,11.92c-.23,.46-.46,.9-.68,1.33l-1.67,3.39-43.02,13.3c-.43,.13-.85,.3-1.26,.49-6.01,2.84-16.01,11.04-15.4,23.74,.2,4.15,.31,10.46,.38,15.87-.21,.22-.41,.45-.6,.68-1.87,2.32-2.6,5.32-2.01,8.21,.02,.1,2.14,10.54,3.68,15.87,2.37,8.15,9.83,12.06,15.8,12.26,.05,0,6.92,.14,11.9,.14h.44c5.61,14.64,19.8,25.06,36.39,25.06,17.91,0,33.19-12.35,37.64-28.98h82.82c4.37,16.8,19.53,28.98,37.67,28.98,16.53,0,30.59-10.12,36.26-24.64,.88,.25,1.79,.38,2.72,.38h38.45c.95,.21,2.06,.36,3.29,.36,5.49,0,10.25-3.02,12.71-8.14,.37-.77,.64-1.59,.8-2.44,0-.05,.02-.1,.03-.15l3.4-19.39c.1-.55,.15-1.19,.15-1.75,0-4.49-2.31-9.17-6.72-11.85Z"/>
          <path class="cls-32" d="M319.04,107.95c.08-4.42,.18-7.98,.3-10.48,.63-13.16-10-21.37-15.71-23.88-.33-.14-.67-.27-1.01-.38l-42.96-13.27-3.08-6.14-5.76-10.5-5.52-8.96c-.22-.33-.44-.67-.66-1l-.55-.82c-.22-.32-.44-.64-.65-.94-.2-.29-.39-.57-.58-.84l-2.55-3.51c-.25-.33-.49-.65-.72-.94l-.12-.15c-.16-.21-.33-.42-.48-.61-.2-.25-.4-.5-.6-.75l-.75-.93c-.22-.26-.44-.52-.65-.78l-.29-.34c-.14-.17-.29-.34-.43-.5-.29-.34-.59-.66-.92-1.04l-.48-.54c-.48-.52-.96-1.03-1.44-1.53-.51-.52-1.03-1.03-1.54-1.53-.14-.13-.27-.26-.41-.38l-.1-.09c-.35-.33-.7-.65-1.06-.97-.19-.17-.38-.33-.57-.49l-.36-.31c-.21-.18-.42-.36-.63-.54-.28-.23-.57-.46-.85-.69l-.71-.57c-.38-.3-.76-.58-1.14-.87l-.39-.29c-.42-.31-.85-.61-1.3-.93-.03-.02-.06-.04-.09-.06-1.59-1.12-3.23-2.11-4.78-2.98-.22-.12-.44-.24-.66-.34-11.21-6.07-20.65-6.5-21.05-6.52-.08,0-.19,0-.27,0-1.43-.03-14.22-.19-30.13-.34-.63-.09-1.27-.12-1.91-.08l-3.87,.03-4.34-.04c-.43,0-.86,.03-1.29,.08-14.83,.14-26.83,.3-30.21,.34h-.11c-.09,0-.18,0-.27,0-.43,.02-10.48,.5-22.14,7.14-.16,.08-.31,.16-.46,.25-.03,.02-.06,.04-.09,.05-.18,.11-.36,.22-.56,.35-.8,.48-1.62,1-2.47,1.56l-.16,.1c-.16,.11-.33,.22-.48,.32-.97,.66-1.94,1.39-2.87,2.09-.1,.08-.21,.16-.29,.22-1.05,.82-2.08,1.69-3.09,2.59-.03,.03-.07,.06-.1,.09-1,.91-1.98,1.84-2.91,2.79-.48,.49-.96,1-1.46,1.54l-.51,.57c-.3,.33-.6,.66-.88,.99-.15,.17-.29,.34-.44,.51l-.26,.3c-.22,.26-.45,.53-.71,.84l-.7,.87c-.2,.25-.41,.51-.63,.78l-.71,.91c-.2,.26-.41,.53-.61,.8l-3.11,4.32c-.22,.32-.44,.64-.67,.97l-1.73,2.62c-.22,.33-.43,.67-.63,.97l-4.38,7.2-6.48,11.92c-.23,.46-.46,.9-.68,1.33l-1.67,3.39-43.02,13.3c-.43,.13-.85,.3-1.26,.49-6.01,2.84-16.01,11.04-15.4,23.74,.2,4.15,.31,10.46,.38,15.87-.21,.22-.41,.45-.6,.68-1.87,2.32-2.6,5.32-2.01,8.21,.02,.1,2.14,10.54,3.68,15.87,2.37,8.15,9.83,12.06,15.8,12.26,.05,0,6.92,.14,11.9,.14h.44c5.61,14.64,19.8,25.06,36.39,25.06,17.91,0,33.19-12.35,37.64-28.98h82.82c4.37,16.8,19.53,28.98,37.67,28.98,16.53,0,30.59-10.12,36.26-24.64,.88,.25,1.79,.38,2.72,.38h38.45c.95,.21,2.06,.36,3.29,.36,5.49,0,10.25-3.02,12.71-8.14,.37-.77,.64-1.59,.8-2.44,0-.05,.02-.1,.03-.15l3.4-19.39c.1-.55,.15-1.19,.15-1.75,0-4.49-2.31-9.17-6.72-11.85Z"/>
          <path class="cls-28" d="M317.66,106.87c.08-4.42,.18-7.98,.3-10.48,.63-13.16-10-21.37-15.71-23.88-.33-.14-.67-.27-1.01-.38l-42.96-13.27-3.08-6.14-5.76-10.5-5.52-8.96c-.22-.33-.44-.67-.66-1l-.55-.82c-.22-.32-.44-.64-.65-.94-.2-.29-.39-.57-.58-.84l-2.55-3.51c-.25-.33-.49-.65-.72-.94l-.12-.15c-.16-.21-.32-.42-.48-.61-.2-.25-.4-.5-.6-.75l-.75-.93c-.22-.26-.44-.52-.66-.78l-.29-.34c-.14-.17-.29-.34-.43-.5-.29-.34-.59-.66-.92-1.04l-.48-.54c-.48-.52-.96-1.03-1.44-1.53-.51-.52-1.03-1.03-1.54-1.53-.14-.13-.27-.26-.41-.38l-.1-.09c-.35-.33-.7-.65-1.06-.97-.19-.17-.38-.33-.56-.49l-.36-.31c-.21-.18-.42-.36-.63-.54-.28-.23-.56-.46-.85-.69l-.71-.57c-.38-.3-.76-.58-1.14-.87l-.39-.29c-.42-.31-.85-.61-1.3-.93-.03-.02-.06-.04-.09-.06-1.6-1.11-3.22-2.12-4.78-2.98-.22-.12-.44-.24-.66-.34C206.22,.9,196.78,.46,196.38,.45c-.08,0-.19,0-.27,0-1.43-.02-14.22-.19-30.13-.34-.63-.09-1.27-.12-1.91-.08l-3.87,.03-4.34-.04c-.43,0-.86,.03-1.29,.08-14.83,.14-26.83,.3-30.21,.34h-.11c-.09,0-.18,0-.27,0-.43,.02-10.48,.5-22.14,7.14-.16,.08-.31,.16-.46,.25-.03,.02-.06,.04-.09,.05-.18,.11-.36,.22-.56,.35-.8,.48-1.62,1-2.47,1.56l-.16,.1c-.16,.11-.33,.22-.48,.32-.97,.66-1.95,1.38-2.87,2.09-.1,.08-.21,.16-.29,.22-1.05,.82-2.08,1.69-3.09,2.59-.03,.03-.07,.06-.1,.09-1,.9-1.98,1.84-2.91,2.79-.48,.49-.96,1-1.46,1.54l-.51,.57c-.3,.33-.6,.66-.88,.99-.15,.17-.29,.34-.44,.51l-.26,.3c-.22,.26-.45,.53-.71,.84l-.7,.87c-.2,.25-.41,.51-.63,.78l-.71,.91c-.2,.26-.41,.53-.61,.8l-3.11,4.32c-.22,.32-.44,.64-.67,.97l-1.73,2.62c-.22,.33-.43,.67-.63,.97l-4.38,7.2-6.48,11.92c-.23,.46-.46,.9-.68,1.33l-1.67,3.39-43.02,13.3c-.43,.13-.85,.3-1.26,.49-6.01,2.84-16.01,11.04-15.4,23.74,.2,4.15,.31,10.46,.38,15.87-.21,.22-.41,.45-.6,.68-1.87,2.32-2.6,5.32-2.01,8.21,.02,.1,2.14,10.54,3.68,15.87,2.37,8.15,9.83,12.07,15.8,12.26,.05,0,6.92,.14,11.9,.14h.44c5.61,14.64,19.8,25.06,36.39,25.06,17.91,0,33.19-12.35,37.64-28.98h82.82c4.37,16.8,19.53,28.98,37.67,28.98,16.53,0,30.59-10.12,36.26-24.64,.88,.25,1.79,.38,2.72,.38h38.45c.95,.21,2.06,.36,3.29,.36,5.49,0,10.24-3.03,12.71-8.14,.37-.77,.64-1.6,.8-2.44,0-.05,.02-.1,.03-.15l3.4-19.39c.1-.55,.15-1.19,.15-1.75,0-4.49-2.31-9.17-6.72-11.85Z"/>
        </g>
        <path class="cls-5" d="M317.66,106.87c.08-4.42,.18-7.98,.3-10.48,.63-13.16-10-21.37-15.71-23.88-.33-.14-.67-.27-1.01-.38l-42.96-13.27-3.08-6.14-5.76-10.5-5.52-8.96c-.22-.33-.44-.67-.66-1l-.55-.82c-.22-.32-.44-.64-.65-.94-.2-.29-.39-.57-.58-.84l-2.55-3.51c-.25-.33-.49-.65-.72-.94l-.12-.15c-.16-.21-.32-.42-.48-.61-.2-.25-.4-.5-.6-.75l-.75-.93c-.22-.26-.44-.52-.66-.78l-.29-.34c-.14-.17-.29-.34-.43-.5-.29-.34-.59-.66-.92-1.04l-.48-.54c-.48-.52-.96-1.03-1.44-1.53-.51-.52-1.03-1.03-1.54-1.53-.14-.13-.27-.26-.41-.38l-.1-.09c-.35-.33-.7-.65-1.06-.97-.19-.17-.38-.33-.56-.49l-.36-.31c-.21-.18-.42-.36-.63-.54-.28-.23-.56-.46-.85-.69l-.71-.57c-.38-.3-.76-.58-1.14-.87l-.39-.29c-.42-.31-.85-.61-1.3-.93-.03-.02-.06-.04-.09-.06-1.6-1.11-3.22-2.12-4.78-2.98-.22-.12-.44-.24-.66-.34C206.22,.9,196.78,.46,196.38,.45c-.08,0-.19,0-.27,0-1.43-.02-14.22-.19-30.13-.34-.63-.09-1.27-.12-1.91-.08l-3.87,.03-4.34-.04c-.43,0-.86,.03-1.29,.08-14.83,.14-26.83,.3-30.21,.34h-.11c-.09,0-.18,0-.27,0-.43,.02-10.48,.5-22.14,7.14-.16,.08-.31,.16-.46,.25-.03,.02-.06,.04-.09,.05-.18,.11-.36,.22-.56,.35-.8,.48-1.62,1-2.47,1.56l-.16,.1c-.16,.11-.33,.22-.48,.32-.97,.66-1.95,1.38-2.87,2.09-.1,.08-.21,.16-.29,.22-1.05,.82-2.08,1.69-3.09,2.59-.03,.03-.07,.06-.1,.09-1,.9-1.98,1.84-2.91,2.79-.48,.49-.96,1-1.46,1.54l-.51,.57c-.3,.33-.6,.66-.88,.99-.15,.17-.29,.34-.44,.51l-.26,.3c-.22,.26-.45,.53-.71,.84l-.7,.87c-.2,.25-.41,.51-.63,.78l-.71,.91c-.2,.26-.41,.53-.61,.8l-3.11,4.32c-.22,.32-.44,.64-.67,.97l-1.73,2.62c-.22,.33-.43,.67-.63,.97l-4.38,7.2-6.48,11.92c-.23,.46-.46,.9-.68,1.33l-1.67,3.39-43.02,13.3c-.43,.13-.85,.3-1.26,.49-6.01,2.84-16.01,11.04-15.4,23.74,.2,4.15,.31,10.46,.38,15.87-.21,.22-.41,.45-.6,.68-1.87,2.32-2.6,5.32-2.01,8.21,.02,.1,2.14,10.54,3.68,15.87,2.37,8.15,9.83,12.07,15.8,12.26,.05,0,6.92,.14,11.9,.14h.44c5.61,14.64,19.8,25.06,36.39,25.06,17.91,0,33.19-12.35,37.64-28.98h82.82c4.37,16.8,19.53,28.98,37.67,28.98,16.53,0,30.59-10.12,36.26-24.64,.88,.25,1.79,.38,2.72,.38h38.45c.95,.21,2.06,.36,3.29,.36,5.49,0,10.24-3.03,12.71-8.14,.37-.77,.64-1.6,.8-2.44,0-.05,.02-.1,.03-.15l3.4-19.39c.1-.55,.15-1.19,.15-1.75,0-4.49-2.31-9.17-6.72-11.85Z"/>
        <g>
          <g>
            <g>
              <path class="cls-33" d="M298.29,81.67l-47.16-14.57s-12.62-28.18-26.24-42.12c-13.62-13.93-28.89-14.57-28.89-14.57,0,0-13.87-.19-31.46-.35v-.07c-1.46,.01-2.91,.02-4.34,.04-1.43-.01-2.88-.02-4.34-.04v.07c-17.6,.16-31.46,.35-31.46,.35,0,0-15.27,.63-28.89,14.57-13.62,13.93-26.24,42.12-26.24,42.12l-47.16,14.57s-10.16,4.74-9.7,14.24c.45,9.5,.48,29.06,.48,29.06l82.63,10.55H224.89l82.63-10.55s.02-19.56,.48-29.06c.45-9.5-9.7-14.24-9.7-14.24Z"/>
              <path d="M224.89,136H95.5L12.81,125.44c-.24-.03-.41-.23-.41-.47,0-.2-.03-19.66-.48-29.04-.46-9.71,9.87-14.65,9.98-14.7l47.02-14.53c1.16-2.54,13.32-28.83,26.24-42.06,13.59-13.91,29.05-14.7,29.21-14.71,.15,0,13.97-.19,31.27-.35,.07-.04,.14-.08,.22-.08h0l4.34,.04,4.33-.04c.12-.03,.18,.03,.26,.08,17.28,.16,31.08,.35,31.21,.35,.17,0,15.63,.8,29.22,14.71,12.92,13.22,25.08,39.52,26.24,42.06l46.96,14.51c.17,.07,10.5,5.01,10.04,14.72-.45,9.38-.48,28.84-.48,29.04,0,.24-.18,.44-.41,.47l-82.63,10.55s-.04,0-.06,0ZM13.35,124.55l82.21,10.5H224.86s82.18-10.5,82.18-10.5c0-2.89,.06-20.03,.48-28.66,.43-9.08-9.33-13.74-9.43-13.79l-47.1-14.55c-.13-.04-.24-.13-.29-.26-.13-.28-12.74-28.27-26.14-41.98-13.32-13.63-28.42-14.42-28.57-14.42-.13,0-14.06-.2-31.45-.35-.09,0-.17-.03-.25-.07l-4.09,.03-4.12-.03c-.06,.04-.14,.07-.22,.07-17.39,.16-31.32,.35-31.46,.35-.14,0-15.24,.8-28.56,14.42-13.4,13.71-26.02,41.7-26.14,41.98-.06,.13-.16,.22-.29,.26l-47.16,14.57s-9.8,4.7-9.37,13.77c.41,8.64,.47,25.77,.48,28.66Z"/>
            </g>
            <path class="cls-4" d="M303.05,84.99c-2.24,1.2-4.5,2.37-6.77,3.48-12.57,6.19-25.83,10.85-39.37,14.39-28.72,7.51-58.62,10.94-88.28,10.9-29.8-.04-59.19-3.62-87.89-11.8-12.82-3.65-25.6-7.88-37.74-13.41-5.37-2.44-10.59-5.23-15.39-8.58l-5.51,1.7s-10.16,4.74-9.7,14.24c.45,9.5,.48,29.06,.48,29.06l82.63,10.55H224.89l82.63-10.55s.02-19.56,.48-29.06c.24-4.92-2.37-8.56-4.94-10.93Z"/>
            <g>
              <path class="cls-11" d="M36.78,135.31c0-4.11,.71-8.05,2-11.68H12.38c.51,1.99,1.31,4.59,2.14,7.82,.66,2.57,2.35,4.02,4.38,4.81,2.02,.79,4.39,.94,6.45,.94,1.31,0,2.5-.06,3.4-.06,.34,0,3.14,0,7.96-.02h.11v-.12c-.03-.56-.05-1.12-.05-1.69Z"/>
              <path class="cls-19" d="M25.34,137.67c-1.77,0-4.39-.1-6.62-.98-2.46-.96-4.03-2.69-4.66-5.13-.45-1.74-.89-3.31-1.28-4.69-.33-1.17-.63-2.21-.86-3.13-.04-.14,0-.29,.09-.41,.09-.12,.23-.18,.37-.18h26.41c.15,0,.3,.07,.39,.2,.09,.13,.11,.29,.06,.43-1.31,3.69-1.98,7.56-1.98,11.52,0,.56,.02,1.11,.04,1.67v.12c.01,.13-.04,.26-.13,.35-.09,.09-.21,.15-.34,.15h-.11c-4.82,.01-7.63,.02-7.96,.02-.41,0-.87,.01-1.38,.03-.62,.02-1.31,.04-2.03,.04Zm-12.35-13.57c.2,.76,.44,1.6,.7,2.51,.39,1.39,.84,2.96,1.29,4.71,.55,2.13,1.93,3.64,4.09,4.48,2.09,.82,4.58,.91,6.28,.91,.71,0,1.39-.02,2-.04,.52-.01,.99-.03,1.4-.03,.33,0,2.99,0,7.58-.02-.02-.44-.03-.89-.03-1.33,0-3.84,.61-7.61,1.81-11.21H12.99Z"/>
            </g>
            <path d="M228.1,98.29c-19.32,0-35,17.06-35.23,38.19h70.47c-.23-21.13-15.91-38.19-35.24-38.19Z"/>
            <g>
              <path d="M68.52,101.82c-17.46,0-31.63,14.77-31.84,33.08h63.68c-.21-18.3-14.38-33.08-31.84-33.08Z"/>
              <g>
                <g>
                  <circle class="cls-25" cx="68.42" cy="135.53" r="28.97"/>
                  <path d="M68.42,164.98c-16.24,0-29.45-13.21-29.45-29.45s13.21-29.45,29.45-29.45,29.45,13.21,29.45,29.45-13.21,29.45-29.45,29.45Zm0-57.95c-15.71,0-28.5,12.78-28.5,28.5s12.79,28.5,28.5,28.5,28.5-12.79,28.5-28.5-12.79-28.5-28.5-28.5Z"/>
                </g>
                <g>
                  <ellipse class="cls-31" cx="68.42" cy="135.53" rx="19.15" ry="19.29"/>
                  <g>
                    <path class="cls-9" d="M86.8,135.56c0,10.2-8.21,18.47-18.34,18.47s-18.34-8.27-18.34-18.47,8.21-18.47,18.34-18.47,18.34,8.27,18.34,18.47Z"/>
                    <path d="M68.46,154.27c-10.24,0-18.58-8.39-18.58-18.71s8.33-18.71,18.58-18.71,18.58,8.39,18.58,18.71-8.33,18.71-18.58,18.71Zm0-36.95c-9.98,0-18.1,8.18-18.1,18.24s8.12,18.23,18.1,18.23,18.1-8.18,18.1-18.23-8.12-18.24-18.1-18.24Z"/>
                  </g>
                  <g>
                    <path class="cls-9" d="M85.54,135.56c0,9.5-7.65,17.21-17.09,17.21s-17.09-7.7-17.09-17.21,7.65-17.21,17.09-17.21,17.09,7.71,17.09,17.21Z"/>
                    <path d="M68.46,153.01c-9.55,0-17.32-7.83-17.32-17.45s7.77-17.45,17.32-17.45,17.32,7.83,17.32,17.45-7.77,17.45-17.32,17.45Zm0-34.42c-9.29,0-16.85,7.61-16.85,16.97s7.56,16.97,16.85,16.97,16.85-7.61,16.85-16.97-7.56-16.97-16.85-16.97Z"/>
                  </g>
                  <g>
                    <path class="cls-26" d="M83.56,135.56c0,8.31-6.76,15.04-15.1,15.04s-15.11-6.73-15.11-15.04,6.76-15.04,15.11-15.04,15.1,6.73,15.1,15.04Z"/>
                    <path d="M68.46,150.84c-8.46,0-15.34-6.85-15.34-15.27s6.88-15.28,15.34-15.28,15.34,6.85,15.34,15.28-6.88,15.27-15.34,15.27Zm0-30.08c-8.2,0-14.87,6.64-14.87,14.8s6.67,14.8,14.87,14.8,14.87-6.64,14.87-14.8-6.67-14.8-14.87-14.8Z"/>
                  </g>
                  <path d="M80.76,135.56c0,6.77-5.51,12.25-12.31,12.25s-12.31-5.48-12.31-12.25,5.51-12.25,12.31-12.25,12.31,5.48,12.31,12.25Z"/>
                  <g>
                    <path class="cls-9" d="M74.29,140.59c2.86,2,4.99,4.34,6.59,6.64,.94-1,1.75-2.1,2.41-3.26-6.34-2.61-14.78-7.35-8.78-12.4,2.87-2.42,5.89-3.92,8.69-4.86-.5-.85-1.07-1.67-1.72-2.45-.38-.46-.79-.89-1.21-1.3-3.86,5.66-10,12.55-13.61,5.74-1.81-3.43-2.65-6.82-2.96-9.83-1.1,.32-2.17,.76-3.21,1.31,3.89,5.66,8.25,14.07,.57,15.03-3.6,.45-6.87,.1-9.67-.6-.06,1.28,.02,2.56,.25,3.83,6.41-2.21,15.15-3.95,14.07,3.58-.54,3.74-1.8,6.91-3.27,9.49,.76,.28,1.53,.52,2.31,.69,.85-6.83,3.17-16.09,9.54-11.63Z"/>
                    <path d="M64.74,152.46s-.03,0-.05,0c-.77-.17-1.56-.41-2.34-.7-.06-.03-.12-.08-.14-.14-.02-.06-.02-.14,.02-.2,1.68-2.94,2.77-6.11,3.24-9.41,.24-1.68-.01-2.97-.76-3.82-1.73-2-6.31-1.81-13,.5-.07,.02-.14,.02-.2-.02-.06-.04-.1-.1-.11-.16-.23-1.28-.31-2.58-.25-3.88,0-.07,.04-.14,.1-.18,.06-.04,.13-.06,.2-.04,3.15,.79,6.39,1,9.58,.6,1.91-.24,3.16-.97,3.7-2.18,1.35-3.02-1.67-8.45-4.44-12.48-.04-.06-.05-.12-.04-.19,.02-.06,.06-.12,.12-.15,1.04-.55,2.13-1,3.25-1.33,.07-.02,.14,0,.2,.03,.06,.04,.1,.1,.1,.17,.36,3.46,1.34,6.73,2.93,9.74,.95,1.79,2.14,2.7,3.54,2.7,3.21,0,7.03-4.61,9.66-8.47,.04-.06,.1-.09,.17-.1,.07,0,.14,.02,.19,.06,.44,.43,.86,.87,1.23,1.31,.64,.76,1.23,1.6,1.75,2.48,.04,.06,.04,.14,.02,.2s-.08,.12-.15,.14c-3.18,1.06-6.08,2.68-8.61,4.81-1.49,1.25-2.14,2.56-1.93,3.88,.51,3.3,6.07,6.24,10.65,8.12,.06,.03,.11,.08,.13,.14,.02,.07,.02,.14-.02,.19-.68,1.19-1.5,2.31-2.44,3.3-.05,.05-.12,.09-.19,.07-.07,0-.14-.04-.18-.1-1.8-2.6-4-4.81-6.53-6.59-1.07-.75-2.06-1.13-2.96-1.13-4.05,0-5.63,7.89-6.21,12.59,0,.07-.04,.13-.1,.17-.04,.03-.09,.04-.14,.04Zm-1.97-1.06c.59,.21,1.18,.39,1.76,.53,.75-5.88,2.52-12.74,6.65-12.74,.99,0,2.08,.41,3.23,1.21,2.5,1.75,4.68,3.92,6.48,6.46,.77-.85,1.45-1.77,2.04-2.76-4.63-1.93-10.14-4.93-10.68-8.38-.23-1.5,.47-2.95,2.09-4.31,2.5-2.11,5.36-3.72,8.49-4.8-.47-.77-.99-1.49-1.55-2.16-.3-.36-.64-.73-.99-1.08-2.69,3.91-6.54,8.44-9.89,8.44-1.59,0-2.92-.99-3.96-2.96-1.58-2.98-2.57-6.22-2.96-9.63-.91,.28-1.8,.65-2.66,1.08,2.8,4.11,5.75,9.56,4.33,12.72-.62,1.37-1.99,2.2-4.07,2.46-3.15,.39-6.35,.21-9.47-.54-.03,1.08,.04,2.15,.21,3.21,6.79-2.31,11.39-2.42,13.25-.27,.84,.97,1.13,2.38,.87,4.2-.47,3.26-1.53,6.4-3.16,9.33Z"/>
                  </g>
                  <g>
                    <path class="cls-9" d="M76.05,136.35c3.48-.02,6.56,.65,9.19,1.61,.19-1.36,.23-2.73,.1-4.06-6.68,1.54-16.28,2.56-14.26-5.05,.96-3.64,2.58-6.62,4.33-9.01-.89-.41-1.83-.75-2.81-1-.58-.15-1.15-.27-1.73-.35,.08,6.86-1,16.06-7.84,12.59-3.44-1.75-6.06-4.03-8.04-6.31-.72,.9-1.35,1.88-1.88,2.93,6.42,2.37,14.79,6.72,9.06,11.96-2.69,2.46-5.56,4.07-8.24,5.12,.68,1.08,1.48,2.08,2.39,2.99,3.98-5.53,10.13-12.02,13.55-5.24,1.7,3.38,2.48,6.7,2.75,9.66,.78-.21,1.54-.47,2.28-.78-3.21-6.07-6.6-14.99,1.15-15.04Z"/>
                    <path d="M72.62,152.41s-.1-.01-.14-.04c-.06-.04-.09-.1-.1-.17-.31-3.38-1.23-6.6-2.73-9.57-.93-1.84-2.12-2.77-3.55-2.77-3.15,0-6.96,4.37-9.6,8.04-.04,.06-.1,.09-.17,.1-.07,0-.14-.02-.19-.07-.92-.92-1.73-1.94-2.42-3.02-.04-.06-.05-.13-.03-.2,.02-.07,.07-.12,.14-.15,3.04-1.19,5.79-2.89,8.17-5.07,1.43-1.31,2.03-2.64,1.77-3.95-.64-3.25-6.2-5.93-10.76-7.61-.06-.02-.11-.07-.14-.14-.03-.06-.02-.13,0-.19,.53-1.06,1.17-2.06,1.9-2.97,.04-.05,.11-.09,.18-.09,.08,.01,.14,.03,.18,.08,2.27,2.62,4.95,4.73,7.97,6.26,2.06,1.05,3.71,.97,4.92-.25,2.22-2.24,2.63-7.83,2.58-12.12,0-.07,.03-.14,.08-.18,.05-.05,.12-.06,.19-.06,.6,.09,1.19,.21,1.75,.36,.96,.25,1.92,.59,2.85,1.02,.06,.03,.11,.09,.13,.16,.02,.07,0,.14-.04,.2-1.99,2.71-3.44,5.72-4.29,8.93-.46,1.72-.32,3.08,.41,4.03,.92,1.2,2.81,1.81,5.61,1.81,2.17,0,4.85-.36,7.96-1.08,.07-.02,.14,0,.19,.04,.06,.04,.09,.1,.1,.17,.13,1.35,.09,2.73-.1,4.11,0,.07-.05,.13-.11,.17-.06,.04-.14,.04-.2,.02-2.9-1.06-5.92-1.6-8.96-1.6h-.15c-1.92,.01-3.25,.6-3.92,1.73-1.7,2.84,.68,8.62,2.98,12.96,.03,.06,.04,.13,.01,.19-.02,.06-.07,.11-.13,.14-.76,.32-1.54,.58-2.32,.79-.02,0-.04,0-.06,0Zm-6.51-13.04c1.62,0,2.96,1.02,3.97,3.03,1.49,2.94,2.41,6.13,2.75,9.46,.59-.17,1.17-.36,1.74-.59-2.32-4.43-4.63-10.22-2.85-13.2,.77-1.29,2.23-1.95,4.33-1.96h.15c3,0,5.97,.51,8.84,1.52,.15-1.15,.17-2.31,.09-3.44-3.03,.69-5.65,1.03-7.8,1.03-2.96,0-4.97-.67-5.99-1.99-.82-1.07-.99-2.57-.49-4.44,.84-3.17,2.25-6.15,4.19-8.85-.82-.36-1.66-.65-2.5-.87-.46-.12-.94-.22-1.43-.31,.03,4.34-.43,9.87-2.72,12.18-1.35,1.37-3.21,1.49-5.47,.34-2.99-1.52-5.65-3.59-7.92-6.15-.58,.76-1.1,1.57-1.55,2.43,4.62,1.73,10.14,4.47,10.81,7.87,.29,1.48-.36,2.96-1.92,4.39-2.35,2.15-5.06,3.85-8.05,5.05,.58,.89,1.26,1.73,2.01,2.5,2.7-3.71,6.53-8.01,9.82-8.01Z"/>
                  </g>
                  <g>
                    <path class="cls-9" d="M72.11,135.53c0,2.02-1.62,3.65-3.62,3.65s-3.62-1.63-3.62-3.65,1.62-3.65,3.62-3.65,3.62,1.63,3.62,3.65Z"/>
                    <path d="M68.49,139.41c-2.13,0-3.86-1.74-3.86-3.89s1.73-3.89,3.86-3.89,3.86,1.74,3.86,3.89-1.73,3.89-3.86,3.89Zm0-7.3c-1.87,0-3.39,1.53-3.39,3.41s1.52,3.41,3.39,3.41,3.38-1.53,3.38-3.41-1.52-3.41-3.38-3.41Z"/>
                  </g>
                  <path d="M71.68,135.52c0,1.8-1.45,3.26-3.24,3.26s-3.24-1.46-3.24-3.26,1.45-3.26,3.24-3.26,3.24,1.46,3.24,3.26Z"/>
                  <path class="cls-21" d="M71.35,135.56c0,1.61-1.3,2.91-2.89,2.91s-2.89-1.3-2.89-2.91,1.3-2.91,2.89-2.91,2.89,1.3,2.89,2.91Z"/>
                </g>
              </g>
              <path class="cls-15" d="M58.82,110.96s-13.54,4.91-16.23,18.53c0,0-.48,1.82,.55,2.53,0,0,.63,.71,1.11-.79,.47-1.5,3.01-16.86,21.53-19.79,0,0,3.09,.16,3.09-.87s-4.83-1.58-10.05,.4Z"/>
            </g>
            <g>
              <path d="M226.64,101.82c-17.46,0-31.63,14.77-31.84,33.08h63.68c-.21-18.3-14.38-33.08-31.84-33.08Z"/>
              <g>
                <g>
                  <circle class="cls-25" cx="226.55" cy="135.53" r="28.98"/>
                  <path d="M226.55,164.98c-16.24,0-29.45-13.21-29.45-29.45s13.21-29.45,29.45-29.45,29.45,13.21,29.45,29.45-13.21,29.45-29.45,29.45Zm0-57.95c-15.71,0-28.5,12.78-28.5,28.5s12.79,28.5,28.5,28.5,28.5-12.79,28.5-28.5-12.79-28.5-28.5-28.5Z"/>
                </g>
                <g>
                  <ellipse class="cls-31" cx="226.55" cy="135.53" rx="19.15" ry="19.29"/>
                  <g>
                    <path class="cls-9" d="M244.92,135.56c0,10.2-8.21,18.47-18.34,18.47s-18.34-8.27-18.34-18.47,8.21-18.47,18.34-18.47,18.34,8.27,18.34,18.47Z"/>
                    <path d="M226.58,154.27c-10.24,0-18.58-8.39-18.58-18.71s8.33-18.71,18.58-18.71,18.58,8.39,18.58,18.71-8.33,18.71-18.58,18.71Zm0-36.95c-9.98,0-18.1,8.18-18.1,18.24s8.12,18.23,18.1,18.23,18.1-8.18,18.1-18.23-8.12-18.24-18.1-18.24Z"/>
                  </g>
                  <g>
                    <path class="cls-9" d="M243.67,135.56c0,9.5-7.65,17.21-17.09,17.21s-17.09-7.7-17.09-17.21,7.65-17.21,17.09-17.21,17.09,7.71,17.09,17.21Z"/>
                    <path d="M226.58,153.01c-9.55,0-17.32-7.83-17.32-17.45s7.77-17.45,17.32-17.45,17.32,7.83,17.32,17.45-7.77,17.45-17.32,17.45Zm0-34.42c-9.29,0-16.85,7.61-16.85,16.97s7.56,16.97,16.85,16.97,16.85-7.61,16.85-16.97-7.56-16.97-16.85-16.97Z"/>
                  </g>
                  <g>
                    <path class="cls-26" d="M241.69,135.56c0,8.31-6.76,15.04-15.1,15.04s-15.11-6.73-15.11-15.04,6.76-15.04,15.11-15.04,15.1,6.73,15.1,15.04Z"/>
                    <path d="M226.58,150.84c-8.46,0-15.34-6.85-15.34-15.27s6.88-15.28,15.34-15.28,15.34,6.85,15.34,15.28-6.88,15.27-15.34,15.27Zm0-30.08c-8.2,0-14.87,6.64-14.87,14.8s6.67,14.8,14.87,14.8,14.87-6.64,14.87-14.8-6.67-14.8-14.87-14.8Z"/>
                  </g>
                  <path d="M238.89,135.56c0,6.77-5.51,12.25-12.31,12.25s-12.31-5.48-12.31-12.25,5.51-12.25,12.31-12.25,12.31,5.48,12.31,12.25Z"/>
                  <g>
                    <path class="cls-9" d="M232.41,140.59c2.86,2,4.99,4.34,6.59,6.64,.94-1,1.75-2.1,2.41-3.26-6.34-2.61-14.78-7.35-8.78-12.4,2.87-2.42,5.89-3.92,8.69-4.86-.5-.85-1.07-1.67-1.72-2.45-.38-.46-.79-.89-1.21-1.3-3.86,5.66-10,12.55-13.61,5.74-1.81-3.43-2.65-6.82-2.96-9.83-1.1,.32-2.17,.76-3.21,1.31,3.89,5.66,8.25,14.07,.57,15.03-3.6,.45-6.87,.1-9.67-.6-.06,1.28,.02,2.56,.25,3.83,6.41-2.21,15.15-3.95,14.07,3.58-.54,3.74-1.8,6.91-3.27,9.49,.76,.28,1.53,.52,2.31,.69,.85-6.83,3.17-16.09,9.54-11.63Z"/>
                    <path d="M222.87,152.46s-.03,0-.05,0c-.77-.17-1.56-.41-2.34-.7-.07-.03-.12-.08-.14-.14-.02-.06-.02-.14,.02-.2,1.68-2.94,2.77-6.11,3.24-9.41,.24-1.68-.01-2.97-.76-3.82-1.73-2-6.31-1.81-13,.5-.07,.02-.14,.02-.2-.02-.06-.04-.1-.1-.11-.16-.23-1.28-.31-2.58-.25-3.88,0-.07,.04-.14,.1-.18,.06-.04,.13-.06,.2-.04,3.15,.79,6.39,1,9.58,.6,1.91-.24,3.16-.97,3.7-2.18,1.35-3.02-1.67-8.45-4.44-12.48-.04-.06-.05-.12-.04-.19,.02-.06,.06-.12,.12-.15,1.04-.55,2.13-1,3.25-1.33,.07-.02,.14,0,.2,.03,.06,.04,.1,.1,.1,.17,.36,3.46,1.34,6.73,2.93,9.74,.95,1.79,2.14,2.7,3.54,2.7,3.21,0,7.03-4.61,9.66-8.47,.04-.06,.1-.09,.17-.1,.07,0,.14,.02,.19,.06,.44,.43,.86,.87,1.23,1.31,.64,.76,1.23,1.6,1.75,2.48,.04,.06,.04,.14,.02,.2s-.08,.12-.15,.14c-3.18,1.06-6.08,2.68-8.61,4.81-1.49,1.25-2.14,2.56-1.93,3.88,.51,3.3,6.07,6.24,10.65,8.12,.06,.03,.11,.08,.13,.14,.02,.07,.02,.14-.02,.19-.68,1.19-1.5,2.31-2.44,3.3-.05,.05-.12,.09-.19,.07-.07,0-.14-.04-.18-.1-1.8-2.6-4-4.81-6.53-6.59-1.07-.75-2.06-1.13-2.96-1.13-4.05,0-5.63,7.89-6.21,12.59,0,.07-.04,.13-.1,.17-.04,.03-.09,.04-.14,.04Zm-1.97-1.06c.59,.21,1.18,.39,1.76,.53,.75-5.88,2.52-12.74,6.65-12.74,.99,0,2.08,.41,3.23,1.21,2.5,1.75,4.68,3.92,6.48,6.46,.77-.85,1.45-1.77,2.04-2.76-4.63-1.93-10.14-4.93-10.68-8.38-.23-1.5,.47-2.95,2.09-4.31,2.5-2.11,5.35-3.72,8.49-4.8-.47-.77-.99-1.49-1.55-2.16-.3-.36-.64-.73-.99-1.08-2.69,3.91-6.54,8.44-9.89,8.44-1.59,0-2.92-.99-3.96-2.96-1.58-2.98-2.57-6.22-2.96-9.63-.91,.28-1.8,.65-2.66,1.08,2.8,4.11,5.75,9.56,4.33,12.72-.62,1.37-1.99,2.2-4.07,2.46-3.15,.39-6.35,.21-9.47-.54-.03,1.08,.04,2.15,.21,3.21,6.79-2.31,11.39-2.42,13.25-.27,.84,.97,1.13,2.38,.87,4.2-.47,3.26-1.53,6.4-3.16,9.33Z"/>
                  </g>
                  <g>
                    <path class="cls-9" d="M234.18,136.35c3.48-.02,6.56,.65,9.19,1.61,.19-1.36,.23-2.73,.1-4.06-6.68,1.54-16.28,2.56-14.26-5.05,.96-3.64,2.58-6.62,4.33-9.01-.89-.41-1.83-.75-2.81-1-.58-.15-1.15-.27-1.73-.35,.08,6.86-1,16.06-7.84,12.59-3.44-1.75-6.06-4.03-8.04-6.31-.72,.9-1.35,1.88-1.88,2.93,6.42,2.37,14.79,6.72,9.06,11.96-2.69,2.46-5.56,4.07-8.24,5.12,.68,1.08,1.48,2.08,2.39,2.99,3.98-5.53,10.13-12.02,13.55-5.24,1.7,3.38,2.48,6.7,2.75,9.66,.78-.21,1.54-.47,2.28-.78-3.21-6.07-6.6-14.99,1.15-15.04Z"/>
                    <path d="M230.75,152.41s-.1-.01-.14-.04c-.06-.04-.09-.1-.1-.17-.31-3.38-1.23-6.6-2.73-9.57-.93-1.84-2.12-2.77-3.55-2.77-3.15,0-6.96,4.37-9.6,8.04-.04,.06-.1,.09-.17,.1-.07,0-.14-.02-.19-.07-.92-.92-1.73-1.94-2.42-3.02-.04-.06-.05-.13-.03-.2,.02-.07,.07-.12,.14-.15,3.04-1.19,5.79-2.89,8.17-5.07,1.43-1.31,2.03-2.64,1.77-3.95-.64-3.25-6.2-5.93-10.76-7.61-.06-.02-.11-.07-.14-.14s-.02-.13,0-.19c.53-1.06,1.17-2.06,1.9-2.97,.04-.05,.11-.09,.18-.09,.08,.01,.14,.03,.18,.08,2.27,2.62,4.95,4.73,7.97,6.26,2.06,1.05,3.71,.97,4.92-.25,2.22-2.24,2.63-7.83,2.58-12.12,0-.07,.03-.14,.08-.18,.05-.05,.12-.06,.19-.06,.6,.09,1.19,.21,1.75,.36,.96,.25,1.92,.59,2.85,1.02,.06,.03,.11,.09,.13,.16,.02,.07,0,.14-.04,.2-1.99,2.71-3.44,5.72-4.29,8.93-.46,1.72-.32,3.08,.41,4.03,.92,1.2,2.81,1.81,5.61,1.81,2.17,0,4.85-.36,7.96-1.08,.07-.02,.14,0,.19,.04,.06,.04,.09,.1,.1,.17,.13,1.35,.09,2.73-.1,4.11,0,.07-.05,.13-.11,.17-.06,.04-.14,.04-.2,.02-2.9-1.06-5.92-1.6-8.96-1.6h-.15c-1.93,.01-3.25,.6-3.92,1.73-1.7,2.84,.68,8.62,2.98,12.96,.03,.06,.04,.13,.01,.19-.02,.06-.07,.11-.13,.14-.76,.32-1.54,.58-2.32,.79-.02,0-.04,0-.06,0Zm-6.51-13.04c1.62,0,2.96,1.02,3.97,3.03,1.49,2.94,2.41,6.13,2.75,9.46,.59-.17,1.17-.36,1.74-.59-2.32-4.43-4.63-10.22-2.85-13.2,.77-1.29,2.23-1.95,4.33-1.96h.15c3,0,5.97,.51,8.84,1.52,.15-1.15,.17-2.31,.09-3.44-3.03,.69-5.65,1.03-7.8,1.03-2.96,0-4.97-.67-5.99-1.99-.82-1.07-.99-2.57-.49-4.44,.84-3.17,2.25-6.15,4.19-8.85-.82-.36-1.66-.65-2.51-.87-.46-.12-.94-.22-1.43-.31,.03,4.34-.43,9.87-2.72,12.18-1.35,1.37-3.21,1.49-5.47,.34-2.99-1.52-5.65-3.59-7.92-6.15-.58,.76-1.1,1.57-1.55,2.43,4.62,1.73,10.14,4.47,10.81,7.87,.29,1.48-.36,2.96-1.92,4.39-2.35,2.15-5.06,3.85-8.05,5.05,.58,.89,1.26,1.73,2.01,2.5,2.7-3.71,6.53-8.01,9.82-8.01Z"/>
                  </g>
                  <g>
                    <path class="cls-9" d="M230.24,135.53c0,2.02-1.62,3.65-3.62,3.65s-3.62-1.63-3.62-3.65,1.62-3.65,3.62-3.65,3.62,1.63,3.62,3.65Z"/>
                    <path d="M226.62,139.41c-2.13,0-3.86-1.74-3.86-3.89s1.73-3.89,3.86-3.89,3.86,1.74,3.86,3.89-1.73,3.89-3.86,3.89Zm0-7.3c-1.87,0-3.39,1.53-3.39,3.41s1.52,3.41,3.39,3.41,3.38-1.53,3.38-3.41-1.52-3.41-3.38-3.41Z"/>
                  </g>
                  <path d="M229.81,135.52c0,1.8-1.45,3.26-3.24,3.26s-3.24-1.46-3.24-3.26,1.45-3.26,3.24-3.26,3.24,1.46,3.24,3.26Z"/>
                  <path class="cls-21" d="M229.47,135.56c0,1.61-1.3,2.91-2.89,2.91s-2.89-1.3-2.89-2.91,1.3-2.91,2.89-2.91,2.89,1.3,2.89,2.91Z"/>
                </g>
              </g>
              <path class="cls-15" d="M216.95,110.96s-13.54,4.91-16.23,18.53c0,0-.48,1.82,.55,2.53,0,0,.63,.71,1.11-.79,.48-1.5,3.01-16.86,21.53-19.79,0,0,3.09,.16,3.09-.87s-4.83-1.58-10.05,.4Z"/>
            </g>
            <g>
              <path class="cls-24" d="M9.98,119.19l21.38-.32s6.18-.48,5.86,6.81l.32,11.08s.16,2.22-1.11,2.53c-1.27,.32-16.47,0-16.47,0,0,0-5.07-.16-6.49-5.07-1.42-4.91-3.48-15.04-3.48-15.04Z"/>
              <path class="cls-12" d="M31.59,139.92c-4.83,0-11.58-.14-11.64-.14-.06,0-5.43-.23-6.94-5.41-1.41-4.87-3.47-14.98-3.49-15.08-.03-.14,0-.28,.1-.39,.09-.11,.22-.18,.36-.18l21.37-.32s.09,0,.24,0c.82,0,2.89,.17,4.43,1.77,1.22,1.27,1.78,3.14,1.68,5.54l.32,11.05c0,.09,.17,2.6-1.47,3.01-.27,.07-1.07,.15-4.95,.15Zm-21.03-20.26c.45,2.19,2.15,10.27,3.36,14.44,1.31,4.53,6,4.72,6.05,4.72,.06,0,6.8,.14,11.62,.14,3.8,0,4.57-.09,4.72-.13,.72-.18,.78-1.57,.75-2.04l-.32-11.1c.09-2.17-.38-3.8-1.42-4.87-1.31-1.37-3.19-1.48-3.74-1.48-.12,0-.18,0-.19,0l-20.83,.31Z"/>
            </g>
            <g>
              <path class="cls-22" d="M22.65,124.66s9.34-1.42,10.77,2.85,2.38,8.39,.95,8.55-9.82-3.64-11.72-11.4Z"/>
              <path class="cls-12" d="M34.27,136.54c-1.76,0-10.16-3.92-12.08-11.77-.03-.13,0-.27,.07-.38,.07-.11,.19-.19,.32-.21,.06,0,1.55-.23,3.45-.23,4.39,0,7.1,1.18,7.84,3.4,2.37,7.1,1.62,8.27,1.37,8.65-.19,.3-.48,.48-.82,.52-.02,0-.13,0-.15,0Zm-11.02-11.48c2.03,6.99,9.63,10.53,11.02,10.53v.47l.04-.48s.08-.01,.13-.09c.18-.27,.59-1.65-1.47-7.84-.76-2.27-4.19-2.75-6.94-2.75-1.17,0-2.19,.09-2.78,.16Z"/>
            </g>
            <polygon class="cls-14" points="14.75 132.97 11.82 120.47 32.38 120.47 13.98 122.1 14.75 132.97"/>
            <g>
              <g>
                <path class="cls-3" d="M308.48,114.6l-45.34,6.49s-3,.95-2.52,3.96c0,0,2.04,5.66,1.84,10.89l.09,.43c.58,1.65,1.43,2.99,2.99,3.89h39.81s3.88,1.66,5.72-2.14l3.4-19.4s0-4.43-5.99-4.12Z"/>
                <path d="M307.28,141.09h0c-.97,0-1.76-.27-2-.36h-39.75c-.06,0-.13-.02-.18-.05-1.49-.86-2.5-2.17-3.19-4.13l-.11-.5s-.01-.09-.01-.13c.2-5.05-1.79-10.62-1.81-10.68-.01-.03-.02-.07-.03-.1-.43-2.72,1.65-4.13,2.81-4.5l45.4-6.51c.24-.01,.45-.02,.65-.02,5.73,0,5.8,4.56,5.8,4.61,0,.03,0,.06,0,.09l-3.4,19.4s-.02,.09-.04,.14c-1.1,2.27-2.86,2.74-4.14,2.74Zm-41.65-1.31h39.72s.1,0,.14,.03c0,0,.8,.33,1.79,.33h0c1.53,0,2.67-.74,3.4-2.2l3.38-19.27c-.02-.44-.35-3.88-5.56-3.6l-45.31,6.49c-.05,.02-2.54,.85-2.18,3.35,.22,.61,2.03,5.92,1.86,10.97l.07,.36c.58,1.65,1.42,2.76,2.69,3.52Z"/>
              </g>
              <path class="cls-2" d="M310.12,114.66c2.41,2.11,.87,7.39-.47,11.45-2.92,8.82-30.1,9.59-35.63,9.75-2.87,.08-7.27,1.21-9.54-1.49-.73-.87-.85-2.4-.99-3.51-.27-2.17-1.03-3.57-1.92-5.44-.43-.9-.65-1.68-.68-2.41-.27,.54-.41,1.22-.28,2.07,0,0,2.04,5.66,1.84,10.89l.09,.43c.58,1.65,1.43,2.99,2.99,3.89h39.81s3.88,1.66,5.72-2.14l3.4-19.4s-.01-3.56-4.35-4.06Z"/>
              <path class="cls-16" d="M262.25,124.97s-.07-2.06,1.84-2.61c1.91-.55,44.12-6.57,44.12-6.57l-43.64,7.28s-1.77,.32-2.31,1.9Z"/>
            </g>
            <g>
              <path class="cls-8" d="M161.97,67.73h71.75s-20.43-51.02-40.38-51.63c-8.06-.25-20-.29-31.37-.26v51.89Z"/>
              <path class="cls-20" d="M233.72,68.21h-71.75c-.26,0-.48-.21-.48-.48V15.84c0-.26,.21-.47,.47-.48,1.98,0,3.97,0,5.96,0,10.99,0,19.55,.09,25.43,.27,8.45,.26,17.89,9.1,28.06,26.28,7.53,12.71,12.69,25.52,12.74,25.65,.06,.15,.04,.31-.05,.44-.09,.13-.24,.21-.39,.21Zm-71.28-.95h70.57c-2.47-5.93-21.49-50.12-39.69-50.68-5.87-.18-14.42-.27-25.4-.27-1.83,0-3.66,0-5.48,0v50.94Z"/>
            </g>
            <g>
              <path class="cls-8" d="M156.46,15.86c-14.54,.07-26.84,.24-26.84,.24,0,0-24.23,1.83-42.95,51.63h69.79V15.86Z"/>
              <path class="cls-20" d="M156.46,68.21H86.67c-.16,0-.3-.08-.39-.2-.09-.13-.11-.29-.05-.44,18.61-49.51,42.36-51.86,43.36-51.93,.15,0,12.51-.17,26.88-.24h0c.13,0,.25,.05,.33,.14,.09,.09,.14,.21,.14,.34v51.87c0,.26-.21,.48-.48,.48Zm-69.11-.95h68.63V16.34c-14.16,.07-26.24,.24-26.36,.24-.21,.02-23.93,2.43-42.27,50.68Z"/>
            </g>
            <g>
              <g>
                <path class="cls-33" d="M156.14,76.45c0,2.04-1.65,3.69-3.69,3.69h-14.42c-2.04,0-3.69-1.65-3.69-3.69h0c0-2.04,1.65-3.69,3.69-3.69h14.42c2.04,0,3.69,1.65,3.69,3.69h0Z"/>
                <path d="M152.45,80.62h-14.42c-2.3,0-4.17-1.87-4.17-4.17s1.87-4.17,4.17-4.17h14.42c2.3,0,4.17,1.87,4.17,4.17s-1.87,4.17-4.17,4.17Zm-14.42-7.39c-1.77,0-3.22,1.44-3.22,3.22s1.44,3.22,3.22,3.22h14.42c1.77,0,3.22-1.44,3.22-3.22s-1.44-3.22-3.22-3.22h-14.42Z"/>
              </g>
              <path class="cls-5" d="M142.57,75.42c0,.51-.41,.92-.92,.92h-3.6c-.51,0-.92-.41-.92-.92h0c0-.51,.41-.92,.92-.92h3.6c.51,0,.92,.41,.92,.92h0Z"/>
            </g>
            <g>
              <g>
                <path class="cls-33" d="M232.81,76.45c0,2.04-1.65,3.69-3.69,3.69h-14.42c-2.04,0-3.69-1.65-3.69-3.69h0c0-2.04,1.65-3.69,3.69-3.69h14.42c2.04,0,3.69,1.65,3.69,3.69h0Z"/>
                <path d="M229.11,80.62h-14.42c-2.3,0-4.17-1.87-4.17-4.17s1.87-4.17,4.17-4.17h14.42c2.3,0,4.17,1.87,4.17,4.17s-1.87,4.17-4.17,4.17Zm-14.42-7.39c-1.77,0-3.22,1.44-3.22,3.22s1.44,3.22,3.22,3.22h14.42c1.77,0,3.22-1.44,3.22-3.22s-1.44-3.22-3.22-3.22h-14.42Z"/>
              </g>
              <path class="cls-5" d="M219.23,75.42c0,.51-.41,.92-.92,.92h-3.6c-.51,0-.92-.41-.92-.92h0c0-.51,.41-.92,.92-.92h3.6c.51,0,.92,.41,.92,.92h0Z"/>
            </g>
            <g>
              <path class="cls-8" d="M212.46,22.59c4.37,5.7,21.62,23.47,30.93,44.51h7.74s-12.62-28.18-26.24-42.12c-3.9-3.99-7.93-6.88-11.7-8.99-1.67,1.88-2.58,4.19-.73,6.59Z"/>
              <path class="cls-20" d="M251.13,67.57h-7.74c-.19,0-.36-.11-.43-.28-7.48-16.91-20.2-31.81-27.03-39.81-1.67-1.95-2.99-3.5-3.84-4.61-1.71-2.23-1.45-4.72,.76-7.2,.15-.17,.39-.21,.59-.1,4.3,2.4,8.27,5.45,11.8,9.07,13.52,13.83,26.21,41.97,26.33,42.26,.07,.15,.05,.32-.03,.45-.09,.14-.24,.22-.4,.22Zm-7.44-.95h6.7c-2.01-4.35-13.6-28.79-25.84-41.31-3.38-3.46-7.16-6.39-11.25-8.71-1.68,2.04-1.83,3.91-.46,5.7,.84,1.09,2.15,2.62,3.81,4.57,6.83,7.99,19.5,22.83,27.05,39.76Z"/>
            </g>
            <g>
              <path class="cls-8" d="M109.95,20.92c1.14-2.52-1.04-3.79-3.62-4.43-3.52,2.06-7.23,4.81-10.83,8.49-13.62,13.93-26.24,42.12-26.24,42.12l8.87-.81c7.84-17.81,31.82-45.36,31.82-45.36Z"/>
              <path class="cls-20" d="M69.26,67.57c-.15,0-.3-.07-.39-.2-.1-.14-.12-.32-.05-.47,.13-.28,12.81-28.42,26.33-42.26,3.29-3.36,6.97-6.25,10.93-8.57,.11-.06,.24-.08,.36-.05,2.14,.54,3.5,1.37,4.03,2.47,.37,.77,.34,1.65-.1,2.62-.02,.04-.04,.08-.07,.11-.24,.28-24.03,27.7-31.75,45.24-.07,.16-.22,.27-.39,.28l-8.87,.81s-.03,0-.04,0ZM106.41,17c-3.83,2.26-7.38,5.06-10.57,8.31-12.17,12.46-23.7,36.69-25.8,41.24l7.77-.71c7.72-17.31,30.55-43.79,31.74-45.17,.3-.68,.32-1.25,.08-1.75-.39-.8-1.5-1.46-3.22-1.92Z"/>
            </g>
            <g>
              <g>
                <path class="cls-25" d="M35.07,99.78c0,7.01-4.4,12.7-9.84,12.7s-9.84-5.69-9.84-12.7,4.4-12.7,9.84-12.7,9.84,5.69,9.84,12.7Z"/>
                <path d="M25.23,112.95c-5.69,0-10.31-5.91-10.31-13.18s4.63-13.18,10.31-13.18,10.31,5.91,10.31,13.18-4.63,13.18-10.31,13.18Zm0-25.4c-5.16,0-9.36,5.48-9.36,12.23s4.2,12.23,9.36,12.23,9.36-5.48,9.36-12.23-4.2-12.23-9.36-12.23Z"/>
              </g>
              <g>
                <path class="cls-23" d="M31.91,99.31c0,5.55-3.49,10.06-7.79,10.06s-7.79-4.5-7.79-10.06,3.49-10.06,7.79-10.06,7.79,4.5,7.79,10.06Z"/>
                <path d="M24.12,109.72c-4.49,0-8.15-4.67-8.15-10.41s3.65-10.42,8.15-10.42,8.15,4.67,8.15,10.42-3.66,10.41-8.15,10.41Zm0-20.12c-4.1,0-7.43,4.35-7.43,9.7s3.33,9.7,7.43,9.7,7.43-4.35,7.43-9.7-3.34-9.7-7.43-9.7Z"/>
              </g>
              <path class="cls-5" d="M23.76,96.62c0,2.18-1.37,3.94-3.06,3.94s-3.06-1.77-3.06-3.94,1.37-3.94,3.06-3.94,3.06,1.77,3.06,3.94Z"/>
            </g>
            <g>
              <g>
                <path class="cls-25" d="M294.33,94.29c0,3.99,2.5,7.22,5.59,7.22s5.59-3.23,5.59-7.22-2.5-7.22-5.59-7.22-5.59,3.23-5.59,7.22Z"/>
                <path d="M299.92,101.98c-3.34,0-6.06-3.45-6.06-7.69s2.72-7.69,6.06-7.69,6.06,3.45,6.06,7.69-2.72,7.69-6.06,7.69Zm0-14.43c-2.82,0-5.11,3.02-5.11,6.74s2.29,6.74,5.11,6.74,5.11-3.02,5.11-6.74-2.29-6.74-5.11-6.74Z"/>
              </g>
              <g>
                <path class="cls-23" d="M296.12,94.03c0,3.16,1.98,5.72,4.43,5.72s4.43-2.56,4.43-5.72-1.98-5.72-4.43-5.72-4.43,2.56-4.43,5.72Z"/>
                <path d="M300.55,100.1c-2.64,0-4.78-2.72-4.78-6.07s2.15-6.07,4.78-6.07,4.78,2.72,4.78,6.07-2.15,6.07-4.78,6.07Zm0-11.43c-2.25,0-4.07,2.4-4.07,5.36s1.83,5.36,4.07,5.36,4.07-2.4,4.07-5.36-1.83-5.36-4.07-5.36Z"/>
              </g>
              <path class="cls-5" d="M300.76,92.5c0,1.24,.78,2.24,1.74,2.24s1.74-1,1.74-2.24-.78-2.24-1.74-2.24-1.74,1-1.74,2.24Z"/>
            </g>
            <path d="M161.97,126.71c0,.49-.4,.89-.89,.89h0c-.49,0-.89-.4-.89-.89v-50.41c0-.49,.4-.89,.89-.89h0c.49,0,.89,.4,.89,.89v50.41Z"/>
          </g>
          <g>
            <g>
              <path class="cls-33" d="M89.76,63.32l-8.43,3.78s-2.14,.73-2.26,2.4c-.12,1.66,1.54,2.14,3.8,2.02,2.26-.12,8.36,.02,8.36,.02l-1.47-8.21Z"/>
              <path d="M91.24,72h-.01s-2.96-.07-5.51-.07c-1.26,0-2.21,.02-2.81,.05-1.82,.1-3.11-.2-3.78-.92-.39-.42-.56-.96-.52-1.61,.14-1.95,2.48-2.78,2.58-2.81l8.39-3.76c.13-.06,.28-.05,.42,.01,.13,.07,.22,.19,.25,.34l1.47,8.21c.03,.14-.01,.28-.11,.39-.09,.11-.22,.17-.36,.17Zm-1.83-8l-7.88,3.53c-.06,.02-1.88,.67-1.98,2-.03,.38,.06,.67,.27,.89,.45,.48,1.56,.69,3.03,.62,.62-.03,1.58-.05,2.86-.05,1.87,0,3.96,.04,4.95,.05l-1.26-7.04Z"/>
            </g>
            <g>
              <path class="cls-33" d="M95,55.56v-2.74s-4.54-.59-6.43,3.92c0,0-1.89,5.46-.7,13.66,0,0,.11,4.63,3.09,5.12,2.98,.49,4.05-.1,4.05-.1v-19.86Z"/>
              <path d="M93.09,76.19h0c-.67,0-1.41-.07-2.22-.2-3.32-.55-3.48-5.38-3.48-5.58-1.19-8.16,.65-13.59,.73-13.82,2.04-4.88,6.95-4.24,6.94-4.24,.24,.03,.41,.23,.41,.47v22.6c0,.17-.09,.33-.24,.41-.07,.04-.69,.36-2.14,.36Zm1.39-22.92c-1.19,0-4.09,.36-5.48,3.66,0,.03-1.82,5.44-.67,13.4,0,.1,.14,4.3,2.69,4.72,.75,.13,1.45,.19,2.06,.19,.72,0,1.18-.09,1.43-.16v-21.82h-.04Z"/>
            </g>
            <path class="cls-5" d="M92.09,57.1v-1.09s-1.81-.23-2.57,1.57c0,0-.75,2.18-.28,5.45,0,0,.04,1.85,1.23,2.04,1.19,.2,1.62-.04,1.62-.04v-7.92Z"/>
          </g>
          <path class="cls-4" d="M32.78,84.59c-.4,0-.78-.26-.91-.67-.16-.5,.12-1.03,.62-1.19l40.66-12.68c.5-.16,1.03,.12,1.19,.62,.16,.5-.12,1.03-.62,1.19l-40.66,12.68c-.09,.03-.19,.04-.28,.04Z"/>
        </g>
      </g>
    </g>
  </g>
</svg>